<mxfile host="app.diagrams.net" modified="2024-04-20T17:29:00.361Z" agent="Mozilla/5.0 (Macintosh; Intel Mac OS X 10_15_7) AppleWebKit/537.36 (KHTML, like Gecko) Chrome/124.0.0.0 Safari/537.36" etag="WqSiC_N5l6eWK1iVRNM1" version="24.2.5" type="github" pages="16">
  <diagram name="1" id="Ymmz0jOcj70GcLxmy2Dk">
    <mxGraphModel dx="995" dy="592" grid="1" gridSize="10" guides="1" tooltips="1" connect="1" arrows="1" fold="1" page="1" pageScale="1" pageWidth="850" pageHeight="1100" math="0" shadow="0">
      <root>
        <mxCell id="0" />
        <mxCell id="1" parent="0" />
        <mxCell id="Au-cjiK0XcctOLfJWjcl-6" value="" style="group" parent="1" vertex="1" connectable="0">
          <mxGeometry x="90" y="80" width="150" height="40" as="geometry" />
        </mxCell>
        <mxCell id="Au-cjiK0XcctOLfJWjcl-4" value="" style="rounded=0;whiteSpace=wrap;html=1;" parent="Au-cjiK0XcctOLfJWjcl-6" vertex="1">
          <mxGeometry x="30" width="120" height="40" as="geometry" />
        </mxCell>
        <mxCell id="Au-cjiK0XcctOLfJWjcl-5" value="0" style="text;html=1;align=center;verticalAlign=middle;resizable=0;points=[];autosize=1;strokeColor=none;fillColor=none;" parent="Au-cjiK0XcctOLfJWjcl-6" vertex="1">
          <mxGeometry y="5" width="30" height="30" as="geometry" />
        </mxCell>
        <mxCell id="Au-cjiK0XcctOLfJWjcl-7" value="" style="group" parent="1" vertex="1" connectable="0">
          <mxGeometry x="90" y="140" width="150" height="40" as="geometry" />
        </mxCell>
        <mxCell id="Au-cjiK0XcctOLfJWjcl-8" value="" style="rounded=0;whiteSpace=wrap;html=1;" parent="Au-cjiK0XcctOLfJWjcl-7" vertex="1">
          <mxGeometry x="30" width="120" height="40" as="geometry" />
        </mxCell>
        <mxCell id="Au-cjiK0XcctOLfJWjcl-9" value="1" style="text;html=1;align=center;verticalAlign=middle;resizable=0;points=[];autosize=1;strokeColor=none;fillColor=none;" parent="Au-cjiK0XcctOLfJWjcl-7" vertex="1">
          <mxGeometry y="5" width="30" height="30" as="geometry" />
        </mxCell>
        <mxCell id="Au-cjiK0XcctOLfJWjcl-10" value="" style="group" parent="1" vertex="1" connectable="0">
          <mxGeometry x="90" y="200" width="150" height="40" as="geometry" />
        </mxCell>
        <mxCell id="Au-cjiK0XcctOLfJWjcl-11" value="" style="rounded=0;whiteSpace=wrap;html=1;" parent="Au-cjiK0XcctOLfJWjcl-10" vertex="1">
          <mxGeometry x="30" width="120" height="40" as="geometry" />
        </mxCell>
        <mxCell id="Au-cjiK0XcctOLfJWjcl-12" value="2" style="text;html=1;align=center;verticalAlign=middle;resizable=0;points=[];autosize=1;strokeColor=none;fillColor=none;" parent="Au-cjiK0XcctOLfJWjcl-10" vertex="1">
          <mxGeometry y="5" width="30" height="30" as="geometry" />
        </mxCell>
        <mxCell id="Au-cjiK0XcctOLfJWjcl-13" value="" style="group" parent="1" vertex="1" connectable="0">
          <mxGeometry x="90" y="320" width="150" height="40" as="geometry" />
        </mxCell>
        <mxCell id="Au-cjiK0XcctOLfJWjcl-14" value="" style="rounded=0;whiteSpace=wrap;html=1;" parent="Au-cjiK0XcctOLfJWjcl-13" vertex="1">
          <mxGeometry x="30" width="120" height="40" as="geometry" />
        </mxCell>
        <mxCell id="Au-cjiK0XcctOLfJWjcl-15" value="4" style="text;html=1;align=center;verticalAlign=middle;resizable=0;points=[];autosize=1;strokeColor=none;fillColor=none;" parent="Au-cjiK0XcctOLfJWjcl-13" vertex="1">
          <mxGeometry y="5" width="30" height="30" as="geometry" />
        </mxCell>
        <mxCell id="Au-cjiK0XcctOLfJWjcl-17" value="" style="group" parent="1" vertex="1" connectable="0">
          <mxGeometry x="90" y="270" width="150" height="40" as="geometry" />
        </mxCell>
        <mxCell id="Au-cjiK0XcctOLfJWjcl-18" value="" style="rounded=0;whiteSpace=wrap;html=1;" parent="Au-cjiK0XcctOLfJWjcl-17" vertex="1">
          <mxGeometry x="30" y="-10" width="120" height="40" as="geometry" />
        </mxCell>
        <mxCell id="Au-cjiK0XcctOLfJWjcl-19" value="3" style="text;html=1;align=center;verticalAlign=middle;resizable=0;points=[];autosize=1;strokeColor=none;fillColor=none;" parent="Au-cjiK0XcctOLfJWjcl-17" vertex="1">
          <mxGeometry y="5" width="30" height="30" as="geometry" />
        </mxCell>
        <mxCell id="Au-cjiK0XcctOLfJWjcl-20" value="" style="group" parent="1" vertex="1" connectable="0">
          <mxGeometry x="90" y="380" width="150" height="40" as="geometry" />
        </mxCell>
        <mxCell id="Au-cjiK0XcctOLfJWjcl-21" value="" style="rounded=0;whiteSpace=wrap;html=1;" parent="Au-cjiK0XcctOLfJWjcl-20" vertex="1">
          <mxGeometry x="30" width="120" height="40" as="geometry" />
        </mxCell>
        <mxCell id="Au-cjiK0XcctOLfJWjcl-22" value="5" style="text;html=1;align=center;verticalAlign=middle;resizable=0;points=[];autosize=1;strokeColor=none;fillColor=none;" parent="Au-cjiK0XcctOLfJWjcl-20" vertex="1">
          <mxGeometry y="5" width="30" height="30" as="geometry" />
        </mxCell>
        <mxCell id="Au-cjiK0XcctOLfJWjcl-23" value="" style="group" parent="1" vertex="1" connectable="0">
          <mxGeometry x="90" y="440" width="150" height="40" as="geometry" />
        </mxCell>
        <mxCell id="Au-cjiK0XcctOLfJWjcl-24" value="" style="rounded=0;whiteSpace=wrap;html=1;" parent="Au-cjiK0XcctOLfJWjcl-23" vertex="1">
          <mxGeometry x="30" width="120" height="40" as="geometry" />
        </mxCell>
        <mxCell id="Au-cjiK0XcctOLfJWjcl-25" value="6" style="text;html=1;align=center;verticalAlign=middle;resizable=0;points=[];autosize=1;strokeColor=none;fillColor=none;" parent="Au-cjiK0XcctOLfJWjcl-23" vertex="1">
          <mxGeometry y="5" width="30" height="30" as="geometry" />
        </mxCell>
        <mxCell id="Au-cjiK0XcctOLfJWjcl-26" value="" style="group" parent="1" vertex="1" connectable="0">
          <mxGeometry x="90" y="500" width="150" height="40" as="geometry" />
        </mxCell>
        <mxCell id="Au-cjiK0XcctOLfJWjcl-27" value="" style="rounded=0;whiteSpace=wrap;html=1;" parent="Au-cjiK0XcctOLfJWjcl-26" vertex="1">
          <mxGeometry x="30" width="120" height="40" as="geometry" />
        </mxCell>
        <mxCell id="Au-cjiK0XcctOLfJWjcl-28" value="7" style="text;html=1;align=center;verticalAlign=middle;resizable=0;points=[];autosize=1;strokeColor=none;fillColor=none;" parent="Au-cjiK0XcctOLfJWjcl-26" vertex="1">
          <mxGeometry y="5" width="30" height="30" as="geometry" />
        </mxCell>
        <mxCell id="Au-cjiK0XcctOLfJWjcl-29" value="" style="group" parent="1" vertex="1" connectable="0">
          <mxGeometry x="90" y="620" width="150" height="40" as="geometry" />
        </mxCell>
        <mxCell id="Au-cjiK0XcctOLfJWjcl-30" value="" style="rounded=0;whiteSpace=wrap;html=1;" parent="Au-cjiK0XcctOLfJWjcl-29" vertex="1">
          <mxGeometry x="30" width="120" height="40" as="geometry" />
        </mxCell>
        <mxCell id="Au-cjiK0XcctOLfJWjcl-31" value="9" style="text;html=1;align=center;verticalAlign=middle;resizable=0;points=[];autosize=1;strokeColor=none;fillColor=none;" parent="Au-cjiK0XcctOLfJWjcl-29" vertex="1">
          <mxGeometry y="5" width="30" height="30" as="geometry" />
        </mxCell>
        <mxCell id="Au-cjiK0XcctOLfJWjcl-32" value="" style="group" parent="1" vertex="1" connectable="0">
          <mxGeometry x="90" y="570" width="150" height="40" as="geometry" />
        </mxCell>
        <mxCell id="Au-cjiK0XcctOLfJWjcl-33" value="" style="rounded=0;whiteSpace=wrap;html=1;" parent="Au-cjiK0XcctOLfJWjcl-32" vertex="1">
          <mxGeometry x="30" y="-10" width="120" height="40" as="geometry" />
        </mxCell>
        <mxCell id="Au-cjiK0XcctOLfJWjcl-34" value="8" style="text;html=1;align=center;verticalAlign=middle;resizable=0;points=[];autosize=1;strokeColor=none;fillColor=none;" parent="Au-cjiK0XcctOLfJWjcl-32" vertex="1">
          <mxGeometry y="5" width="30" height="30" as="geometry" />
        </mxCell>
        <mxCell id="Au-cjiK0XcctOLfJWjcl-35" value="Tamanha = 10" style="text;html=1;align=center;verticalAlign=middle;resizable=0;points=[];autosize=1;strokeColor=none;fillColor=none;" parent="1" vertex="1">
          <mxGeometry x="30" y="10" width="100" height="30" as="geometry" />
        </mxCell>
        <mxCell id="Au-cjiK0XcctOLfJWjcl-36" value="FÃ³rmula hash: %10 (mod)" style="text;html=1;align=center;verticalAlign=middle;resizable=0;points=[];autosize=1;strokeColor=none;fillColor=none;" parent="1" vertex="1">
          <mxGeometry x="160" y="10" width="160" height="30" as="geometry" />
        </mxCell>
      </root>
    </mxGraphModel>
  </diagram>
  <diagram name="2" id="OQHBg-OpbA5KqKCFkx7V">
    <mxGraphModel dx="995" dy="592" grid="1" gridSize="10" guides="1" tooltips="1" connect="1" arrows="1" fold="1" page="1" pageScale="1" pageWidth="850" pageHeight="1100" math="0" shadow="0">
      <root>
        <mxCell id="4dzrZBkDTF7BLw0dG1bD-0" />
        <mxCell id="4dzrZBkDTF7BLw0dG1bD-1" parent="4dzrZBkDTF7BLw0dG1bD-0" />
        <mxCell id="4dzrZBkDTF7BLw0dG1bD-2" value="" style="group" vertex="1" connectable="0" parent="4dzrZBkDTF7BLw0dG1bD-1">
          <mxGeometry x="90" y="80" width="150" height="40" as="geometry" />
        </mxCell>
        <mxCell id="4dzrZBkDTF7BLw0dG1bD-3" value="" style="rounded=0;whiteSpace=wrap;html=1;" vertex="1" parent="4dzrZBkDTF7BLw0dG1bD-2">
          <mxGeometry x="30" width="120" height="40" as="geometry" />
        </mxCell>
        <mxCell id="4dzrZBkDTF7BLw0dG1bD-4" value="0" style="text;html=1;align=center;verticalAlign=middle;resizable=0;points=[];autosize=1;strokeColor=none;fillColor=none;" vertex="1" parent="4dzrZBkDTF7BLw0dG1bD-2">
          <mxGeometry y="5" width="30" height="30" as="geometry" />
        </mxCell>
        <mxCell id="4dzrZBkDTF7BLw0dG1bD-5" value="" style="group" vertex="1" connectable="0" parent="4dzrZBkDTF7BLw0dG1bD-1">
          <mxGeometry x="90" y="140" width="150" height="40" as="geometry" />
        </mxCell>
        <mxCell id="4dzrZBkDTF7BLw0dG1bD-6" value="" style="rounded=0;whiteSpace=wrap;html=1;" vertex="1" parent="4dzrZBkDTF7BLw0dG1bD-5">
          <mxGeometry x="30" width="120" height="40" as="geometry" />
        </mxCell>
        <mxCell id="4dzrZBkDTF7BLw0dG1bD-7" value="1" style="text;html=1;align=center;verticalAlign=middle;resizable=0;points=[];autosize=1;strokeColor=none;fillColor=none;" vertex="1" parent="4dzrZBkDTF7BLw0dG1bD-5">
          <mxGeometry y="5" width="30" height="30" as="geometry" />
        </mxCell>
        <mxCell id="4dzrZBkDTF7BLw0dG1bD-8" value="" style="group" vertex="1" connectable="0" parent="4dzrZBkDTF7BLw0dG1bD-1">
          <mxGeometry x="90" y="200" width="150" height="40" as="geometry" />
        </mxCell>
        <mxCell id="4dzrZBkDTF7BLw0dG1bD-9" value="" style="rounded=0;whiteSpace=wrap;html=1;" vertex="1" parent="4dzrZBkDTF7BLw0dG1bD-8">
          <mxGeometry x="30" width="120" height="40" as="geometry" />
        </mxCell>
        <mxCell id="4dzrZBkDTF7BLw0dG1bD-10" value="2" style="text;html=1;align=center;verticalAlign=middle;resizable=0;points=[];autosize=1;strokeColor=none;fillColor=none;" vertex="1" parent="4dzrZBkDTF7BLw0dG1bD-8">
          <mxGeometry y="5" width="30" height="30" as="geometry" />
        </mxCell>
        <mxCell id="4dzrZBkDTF7BLw0dG1bD-11" value="" style="group" vertex="1" connectable="0" parent="4dzrZBkDTF7BLw0dG1bD-1">
          <mxGeometry x="90" y="320" width="150" height="40" as="geometry" />
        </mxCell>
        <mxCell id="4dzrZBkDTF7BLw0dG1bD-12" value="" style="rounded=0;whiteSpace=wrap;html=1;" vertex="1" parent="4dzrZBkDTF7BLw0dG1bD-11">
          <mxGeometry x="30" width="120" height="40" as="geometry" />
        </mxCell>
        <mxCell id="4dzrZBkDTF7BLw0dG1bD-13" value="4" style="text;html=1;align=center;verticalAlign=middle;resizable=0;points=[];autosize=1;strokeColor=none;fillColor=none;" vertex="1" parent="4dzrZBkDTF7BLw0dG1bD-11">
          <mxGeometry y="5" width="30" height="30" as="geometry" />
        </mxCell>
        <mxCell id="4dzrZBkDTF7BLw0dG1bD-14" value="" style="group" vertex="1" connectable="0" parent="4dzrZBkDTF7BLw0dG1bD-1">
          <mxGeometry x="90" y="270" width="150" height="40" as="geometry" />
        </mxCell>
        <mxCell id="4dzrZBkDTF7BLw0dG1bD-15" value="" style="rounded=0;whiteSpace=wrap;html=1;" vertex="1" parent="4dzrZBkDTF7BLw0dG1bD-14">
          <mxGeometry x="30" y="-10" width="120" height="40" as="geometry" />
        </mxCell>
        <mxCell id="4dzrZBkDTF7BLw0dG1bD-16" value="3" style="text;html=1;align=center;verticalAlign=middle;resizable=0;points=[];autosize=1;strokeColor=none;fillColor=none;" vertex="1" parent="4dzrZBkDTF7BLw0dG1bD-14">
          <mxGeometry y="5" width="30" height="30" as="geometry" />
        </mxCell>
        <mxCell id="4dzrZBkDTF7BLw0dG1bD-17" value="" style="group" vertex="1" connectable="0" parent="4dzrZBkDTF7BLw0dG1bD-1">
          <mxGeometry x="90" y="380" width="150" height="40" as="geometry" />
        </mxCell>
        <mxCell id="4dzrZBkDTF7BLw0dG1bD-18" value="" style="rounded=0;whiteSpace=wrap;html=1;" vertex="1" parent="4dzrZBkDTF7BLw0dG1bD-17">
          <mxGeometry x="30" width="120" height="40" as="geometry" />
        </mxCell>
        <mxCell id="4dzrZBkDTF7BLw0dG1bD-19" value="5" style="text;html=1;align=center;verticalAlign=middle;resizable=0;points=[];autosize=1;strokeColor=none;fillColor=none;" vertex="1" parent="4dzrZBkDTF7BLw0dG1bD-17">
          <mxGeometry y="5" width="30" height="30" as="geometry" />
        </mxCell>
        <mxCell id="4dzrZBkDTF7BLw0dG1bD-20" value="" style="group" vertex="1" connectable="0" parent="4dzrZBkDTF7BLw0dG1bD-1">
          <mxGeometry x="90" y="440" width="150" height="40" as="geometry" />
        </mxCell>
        <mxCell id="4dzrZBkDTF7BLw0dG1bD-21" value="" style="rounded=0;whiteSpace=wrap;html=1;" vertex="1" parent="4dzrZBkDTF7BLw0dG1bD-20">
          <mxGeometry x="30" width="120" height="40" as="geometry" />
        </mxCell>
        <mxCell id="4dzrZBkDTF7BLw0dG1bD-22" value="6" style="text;html=1;align=center;verticalAlign=middle;resizable=0;points=[];autosize=1;strokeColor=none;fillColor=none;" vertex="1" parent="4dzrZBkDTF7BLw0dG1bD-20">
          <mxGeometry y="5" width="30" height="30" as="geometry" />
        </mxCell>
        <mxCell id="4dzrZBkDTF7BLw0dG1bD-23" value="" style="group" vertex="1" connectable="0" parent="4dzrZBkDTF7BLw0dG1bD-1">
          <mxGeometry x="90" y="500" width="150" height="40" as="geometry" />
        </mxCell>
        <mxCell id="4dzrZBkDTF7BLw0dG1bD-24" value="" style="rounded=0;whiteSpace=wrap;html=1;" vertex="1" parent="4dzrZBkDTF7BLw0dG1bD-23">
          <mxGeometry x="30" width="120" height="40" as="geometry" />
        </mxCell>
        <mxCell id="4dzrZBkDTF7BLw0dG1bD-25" value="7" style="text;html=1;align=center;verticalAlign=middle;resizable=0;points=[];autosize=1;strokeColor=none;fillColor=none;" vertex="1" parent="4dzrZBkDTF7BLw0dG1bD-23">
          <mxGeometry y="5" width="30" height="30" as="geometry" />
        </mxCell>
        <mxCell id="4dzrZBkDTF7BLw0dG1bD-26" value="" style="group" vertex="1" connectable="0" parent="4dzrZBkDTF7BLw0dG1bD-1">
          <mxGeometry x="90" y="620" width="150" height="40" as="geometry" />
        </mxCell>
        <mxCell id="4dzrZBkDTF7BLw0dG1bD-27" value="" style="rounded=0;whiteSpace=wrap;html=1;" vertex="1" parent="4dzrZBkDTF7BLw0dG1bD-26">
          <mxGeometry x="30" width="120" height="40" as="geometry" />
        </mxCell>
        <mxCell id="4dzrZBkDTF7BLw0dG1bD-28" value="9" style="text;html=1;align=center;verticalAlign=middle;resizable=0;points=[];autosize=1;strokeColor=none;fillColor=none;" vertex="1" parent="4dzrZBkDTF7BLw0dG1bD-26">
          <mxGeometry y="5" width="30" height="30" as="geometry" />
        </mxCell>
        <mxCell id="4dzrZBkDTF7BLw0dG1bD-29" value="" style="group" vertex="1" connectable="0" parent="4dzrZBkDTF7BLw0dG1bD-1">
          <mxGeometry x="90" y="570" width="150" height="40" as="geometry" />
        </mxCell>
        <mxCell id="4dzrZBkDTF7BLw0dG1bD-30" value="" style="rounded=0;whiteSpace=wrap;html=1;" vertex="1" parent="4dzrZBkDTF7BLw0dG1bD-29">
          <mxGeometry x="30" y="-10" width="120" height="40" as="geometry" />
        </mxCell>
        <mxCell id="4dzrZBkDTF7BLw0dG1bD-31" value="8" style="text;html=1;align=center;verticalAlign=middle;resizable=0;points=[];autosize=1;strokeColor=none;fillColor=none;" vertex="1" parent="4dzrZBkDTF7BLw0dG1bD-29">
          <mxGeometry y="5" width="30" height="30" as="geometry" />
        </mxCell>
        <mxCell id="4dzrZBkDTF7BLw0dG1bD-32" value="Tamanha = 10" style="text;html=1;align=center;verticalAlign=middle;resizable=0;points=[];autosize=1;strokeColor=none;fillColor=none;" vertex="1" parent="4dzrZBkDTF7BLw0dG1bD-1">
          <mxGeometry x="30" y="10" width="100" height="30" as="geometry" />
        </mxCell>
        <mxCell id="4dzrZBkDTF7BLw0dG1bD-33" value="FÃ³rmula hash: %10 (mod)" style="text;html=1;align=center;verticalAlign=middle;resizable=0;points=[];autosize=1;strokeColor=none;fillColor=none;" vertex="1" parent="4dzrZBkDTF7BLw0dG1bD-1">
          <mxGeometry x="160" y="10" width="160" height="30" as="geometry" />
        </mxCell>
        <mxCell id="4dzrZBkDTF7BLw0dG1bD-34" value="inserir 22" style="text;html=1;align=center;verticalAlign=middle;resizable=0;points=[];autosize=1;strokeColor=none;fillColor=none;" vertex="1" parent="4dzrZBkDTF7BLw0dG1bD-1">
          <mxGeometry x="350" y="90" width="70" height="30" as="geometry" />
        </mxCell>
      </root>
    </mxGraphModel>
  </diagram>
  <diagram name="3" id="0mQDGlTz3xlF8Q4s0siN">
    <mxGraphModel dx="995" dy="592" grid="1" gridSize="10" guides="1" tooltips="1" connect="1" arrows="1" fold="1" page="1" pageScale="1" pageWidth="850" pageHeight="1100" math="0" shadow="0">
      <root>
        <mxCell id="02I6UMtjlWmES2GW5TIC-0" />
        <mxCell id="02I6UMtjlWmES2GW5TIC-1" parent="02I6UMtjlWmES2GW5TIC-0" />
        <mxCell id="02I6UMtjlWmES2GW5TIC-2" value="" style="group" vertex="1" connectable="0" parent="02I6UMtjlWmES2GW5TIC-1">
          <mxGeometry x="90" y="80" width="150" height="40" as="geometry" />
        </mxCell>
        <mxCell id="02I6UMtjlWmES2GW5TIC-3" value="" style="rounded=0;whiteSpace=wrap;html=1;" vertex="1" parent="02I6UMtjlWmES2GW5TIC-2">
          <mxGeometry x="30" width="120" height="40" as="geometry" />
        </mxCell>
        <mxCell id="02I6UMtjlWmES2GW5TIC-4" value="0" style="text;html=1;align=center;verticalAlign=middle;resizable=0;points=[];autosize=1;strokeColor=none;fillColor=none;" vertex="1" parent="02I6UMtjlWmES2GW5TIC-2">
          <mxGeometry y="5" width="30" height="30" as="geometry" />
        </mxCell>
        <mxCell id="02I6UMtjlWmES2GW5TIC-5" value="" style="group" vertex="1" connectable="0" parent="02I6UMtjlWmES2GW5TIC-1">
          <mxGeometry x="90" y="140" width="150" height="40" as="geometry" />
        </mxCell>
        <mxCell id="02I6UMtjlWmES2GW5TIC-6" value="" style="rounded=0;whiteSpace=wrap;html=1;" vertex="1" parent="02I6UMtjlWmES2GW5TIC-5">
          <mxGeometry x="30" width="120" height="40" as="geometry" />
        </mxCell>
        <mxCell id="02I6UMtjlWmES2GW5TIC-7" value="1" style="text;html=1;align=center;verticalAlign=middle;resizable=0;points=[];autosize=1;strokeColor=none;fillColor=none;" vertex="1" parent="02I6UMtjlWmES2GW5TIC-5">
          <mxGeometry y="5" width="30" height="30" as="geometry" />
        </mxCell>
        <mxCell id="02I6UMtjlWmES2GW5TIC-8" value="" style="group" vertex="1" connectable="0" parent="02I6UMtjlWmES2GW5TIC-1">
          <mxGeometry x="90" y="200" width="150" height="40" as="geometry" />
        </mxCell>
        <mxCell id="02I6UMtjlWmES2GW5TIC-9" value="" style="rounded=0;whiteSpace=wrap;html=1;" vertex="1" parent="02I6UMtjlWmES2GW5TIC-8">
          <mxGeometry x="30" width="120" height="40" as="geometry" />
        </mxCell>
        <mxCell id="02I6UMtjlWmES2GW5TIC-10" value="2" style="text;html=1;align=center;verticalAlign=middle;resizable=0;points=[];autosize=1;strokeColor=none;fillColor=none;" vertex="1" parent="02I6UMtjlWmES2GW5TIC-8">
          <mxGeometry y="5" width="30" height="30" as="geometry" />
        </mxCell>
        <mxCell id="02I6UMtjlWmES2GW5TIC-35" value="22" style="text;html=1;align=center;verticalAlign=middle;resizable=0;points=[];autosize=1;strokeColor=none;fillColor=none;" vertex="1" parent="02I6UMtjlWmES2GW5TIC-8">
          <mxGeometry x="70" y="5" width="40" height="30" as="geometry" />
        </mxCell>
        <mxCell id="02I6UMtjlWmES2GW5TIC-11" value="" style="group" vertex="1" connectable="0" parent="02I6UMtjlWmES2GW5TIC-1">
          <mxGeometry x="90" y="320" width="150" height="40" as="geometry" />
        </mxCell>
        <mxCell id="02I6UMtjlWmES2GW5TIC-12" value="" style="rounded=0;whiteSpace=wrap;html=1;" vertex="1" parent="02I6UMtjlWmES2GW5TIC-11">
          <mxGeometry x="30" width="120" height="40" as="geometry" />
        </mxCell>
        <mxCell id="02I6UMtjlWmES2GW5TIC-13" value="4" style="text;html=1;align=center;verticalAlign=middle;resizable=0;points=[];autosize=1;strokeColor=none;fillColor=none;" vertex="1" parent="02I6UMtjlWmES2GW5TIC-11">
          <mxGeometry y="5" width="30" height="30" as="geometry" />
        </mxCell>
        <mxCell id="02I6UMtjlWmES2GW5TIC-14" value="" style="group" vertex="1" connectable="0" parent="02I6UMtjlWmES2GW5TIC-1">
          <mxGeometry x="90" y="270" width="150" height="40" as="geometry" />
        </mxCell>
        <mxCell id="02I6UMtjlWmES2GW5TIC-15" value="" style="rounded=0;whiteSpace=wrap;html=1;" vertex="1" parent="02I6UMtjlWmES2GW5TIC-14">
          <mxGeometry x="30" y="-10" width="120" height="40" as="geometry" />
        </mxCell>
        <mxCell id="02I6UMtjlWmES2GW5TIC-16" value="3" style="text;html=1;align=center;verticalAlign=middle;resizable=0;points=[];autosize=1;strokeColor=none;fillColor=none;" vertex="1" parent="02I6UMtjlWmES2GW5TIC-14">
          <mxGeometry y="5" width="30" height="30" as="geometry" />
        </mxCell>
        <mxCell id="02I6UMtjlWmES2GW5TIC-17" value="" style="group" vertex="1" connectable="0" parent="02I6UMtjlWmES2GW5TIC-1">
          <mxGeometry x="90" y="380" width="150" height="40" as="geometry" />
        </mxCell>
        <mxCell id="02I6UMtjlWmES2GW5TIC-18" value="" style="rounded=0;whiteSpace=wrap;html=1;" vertex="1" parent="02I6UMtjlWmES2GW5TIC-17">
          <mxGeometry x="30" width="120" height="40" as="geometry" />
        </mxCell>
        <mxCell id="02I6UMtjlWmES2GW5TIC-19" value="5" style="text;html=1;align=center;verticalAlign=middle;resizable=0;points=[];autosize=1;strokeColor=none;fillColor=none;" vertex="1" parent="02I6UMtjlWmES2GW5TIC-17">
          <mxGeometry y="5" width="30" height="30" as="geometry" />
        </mxCell>
        <mxCell id="02I6UMtjlWmES2GW5TIC-20" value="" style="group" vertex="1" connectable="0" parent="02I6UMtjlWmES2GW5TIC-1">
          <mxGeometry x="90" y="440" width="150" height="40" as="geometry" />
        </mxCell>
        <mxCell id="02I6UMtjlWmES2GW5TIC-21" value="" style="rounded=0;whiteSpace=wrap;html=1;" vertex="1" parent="02I6UMtjlWmES2GW5TIC-20">
          <mxGeometry x="30" width="120" height="40" as="geometry" />
        </mxCell>
        <mxCell id="02I6UMtjlWmES2GW5TIC-22" value="6" style="text;html=1;align=center;verticalAlign=middle;resizable=0;points=[];autosize=1;strokeColor=none;fillColor=none;" vertex="1" parent="02I6UMtjlWmES2GW5TIC-20">
          <mxGeometry y="5" width="30" height="30" as="geometry" />
        </mxCell>
        <mxCell id="02I6UMtjlWmES2GW5TIC-23" value="" style="group" vertex="1" connectable="0" parent="02I6UMtjlWmES2GW5TIC-1">
          <mxGeometry x="90" y="500" width="150" height="40" as="geometry" />
        </mxCell>
        <mxCell id="02I6UMtjlWmES2GW5TIC-24" value="" style="rounded=0;whiteSpace=wrap;html=1;" vertex="1" parent="02I6UMtjlWmES2GW5TIC-23">
          <mxGeometry x="30" width="120" height="40" as="geometry" />
        </mxCell>
        <mxCell id="02I6UMtjlWmES2GW5TIC-25" value="7" style="text;html=1;align=center;verticalAlign=middle;resizable=0;points=[];autosize=1;strokeColor=none;fillColor=none;" vertex="1" parent="02I6UMtjlWmES2GW5TIC-23">
          <mxGeometry y="5" width="30" height="30" as="geometry" />
        </mxCell>
        <mxCell id="02I6UMtjlWmES2GW5TIC-26" value="" style="group" vertex="1" connectable="0" parent="02I6UMtjlWmES2GW5TIC-1">
          <mxGeometry x="90" y="620" width="150" height="40" as="geometry" />
        </mxCell>
        <mxCell id="02I6UMtjlWmES2GW5TIC-27" value="" style="rounded=0;whiteSpace=wrap;html=1;" vertex="1" parent="02I6UMtjlWmES2GW5TIC-26">
          <mxGeometry x="30" width="120" height="40" as="geometry" />
        </mxCell>
        <mxCell id="02I6UMtjlWmES2GW5TIC-28" value="9" style="text;html=1;align=center;verticalAlign=middle;resizable=0;points=[];autosize=1;strokeColor=none;fillColor=none;" vertex="1" parent="02I6UMtjlWmES2GW5TIC-26">
          <mxGeometry y="5" width="30" height="30" as="geometry" />
        </mxCell>
        <mxCell id="02I6UMtjlWmES2GW5TIC-29" value="" style="group" vertex="1" connectable="0" parent="02I6UMtjlWmES2GW5TIC-1">
          <mxGeometry x="90" y="570" width="150" height="40" as="geometry" />
        </mxCell>
        <mxCell id="02I6UMtjlWmES2GW5TIC-30" value="" style="rounded=0;whiteSpace=wrap;html=1;" vertex="1" parent="02I6UMtjlWmES2GW5TIC-29">
          <mxGeometry x="30" y="-10" width="120" height="40" as="geometry" />
        </mxCell>
        <mxCell id="02I6UMtjlWmES2GW5TIC-31" value="8" style="text;html=1;align=center;verticalAlign=middle;resizable=0;points=[];autosize=1;strokeColor=none;fillColor=none;" vertex="1" parent="02I6UMtjlWmES2GW5TIC-29">
          <mxGeometry y="5" width="30" height="30" as="geometry" />
        </mxCell>
        <mxCell id="02I6UMtjlWmES2GW5TIC-32" value="Tamanha = 10" style="text;html=1;align=center;verticalAlign=middle;resizable=0;points=[];autosize=1;strokeColor=none;fillColor=none;" vertex="1" parent="02I6UMtjlWmES2GW5TIC-1">
          <mxGeometry x="30" y="10" width="100" height="30" as="geometry" />
        </mxCell>
        <mxCell id="02I6UMtjlWmES2GW5TIC-33" value="FÃ³rmula hash: %10 (mod)" style="text;html=1;align=center;verticalAlign=middle;resizable=0;points=[];autosize=1;strokeColor=none;fillColor=none;" vertex="1" parent="02I6UMtjlWmES2GW5TIC-1">
          <mxGeometry x="160" y="10" width="160" height="30" as="geometry" />
        </mxCell>
      </root>
    </mxGraphModel>
  </diagram>
  <diagram name="4" id="yrCWB2ngzrJAcPdqU8hZ">
    <mxGraphModel dx="995" dy="592" grid="1" gridSize="10" guides="1" tooltips="1" connect="1" arrows="1" fold="1" page="1" pageScale="1" pageWidth="850" pageHeight="1100" math="0" shadow="0">
      <root>
        <mxCell id="CIz0bAsOg30vxrF3J3EW-0" />
        <mxCell id="CIz0bAsOg30vxrF3J3EW-1" parent="CIz0bAsOg30vxrF3J3EW-0" />
        <mxCell id="CIz0bAsOg30vxrF3J3EW-2" value="" style="group" vertex="1" connectable="0" parent="CIz0bAsOg30vxrF3J3EW-1">
          <mxGeometry x="90" y="80" width="150" height="40" as="geometry" />
        </mxCell>
        <mxCell id="CIz0bAsOg30vxrF3J3EW-3" value="" style="rounded=0;whiteSpace=wrap;html=1;" vertex="1" parent="CIz0bAsOg30vxrF3J3EW-2">
          <mxGeometry x="30" width="120" height="40" as="geometry" />
        </mxCell>
        <mxCell id="CIz0bAsOg30vxrF3J3EW-4" value="0" style="text;html=1;align=center;verticalAlign=middle;resizable=0;points=[];autosize=1;strokeColor=none;fillColor=none;" vertex="1" parent="CIz0bAsOg30vxrF3J3EW-2">
          <mxGeometry y="5" width="30" height="30" as="geometry" />
        </mxCell>
        <mxCell id="CIz0bAsOg30vxrF3J3EW-5" value="" style="group" vertex="1" connectable="0" parent="CIz0bAsOg30vxrF3J3EW-1">
          <mxGeometry x="90" y="140" width="150" height="40" as="geometry" />
        </mxCell>
        <mxCell id="CIz0bAsOg30vxrF3J3EW-6" value="" style="rounded=0;whiteSpace=wrap;html=1;" vertex="1" parent="CIz0bAsOg30vxrF3J3EW-5">
          <mxGeometry x="30" width="120" height="40" as="geometry" />
        </mxCell>
        <mxCell id="CIz0bAsOg30vxrF3J3EW-7" value="1" style="text;html=1;align=center;verticalAlign=middle;resizable=0;points=[];autosize=1;strokeColor=none;fillColor=none;" vertex="1" parent="CIz0bAsOg30vxrF3J3EW-5">
          <mxGeometry y="5" width="30" height="30" as="geometry" />
        </mxCell>
        <mxCell id="CIz0bAsOg30vxrF3J3EW-8" value="" style="group" vertex="1" connectable="0" parent="CIz0bAsOg30vxrF3J3EW-1">
          <mxGeometry x="90" y="200" width="150" height="40" as="geometry" />
        </mxCell>
        <mxCell id="CIz0bAsOg30vxrF3J3EW-9" value="" style="rounded=0;whiteSpace=wrap;html=1;" vertex="1" parent="CIz0bAsOg30vxrF3J3EW-8">
          <mxGeometry x="30" width="120" height="40" as="geometry" />
        </mxCell>
        <mxCell id="CIz0bAsOg30vxrF3J3EW-10" value="2" style="text;html=1;align=center;verticalAlign=middle;resizable=0;points=[];autosize=1;strokeColor=none;fillColor=none;" vertex="1" parent="CIz0bAsOg30vxrF3J3EW-8">
          <mxGeometry y="5" width="30" height="30" as="geometry" />
        </mxCell>
        <mxCell id="CIz0bAsOg30vxrF3J3EW-11" value="22" style="text;html=1;align=center;verticalAlign=middle;resizable=0;points=[];autosize=1;strokeColor=none;fillColor=none;" vertex="1" parent="CIz0bAsOg30vxrF3J3EW-8">
          <mxGeometry x="70" y="5" width="40" height="30" as="geometry" />
        </mxCell>
        <mxCell id="CIz0bAsOg30vxrF3J3EW-12" value="" style="group" vertex="1" connectable="0" parent="CIz0bAsOg30vxrF3J3EW-1">
          <mxGeometry x="90" y="320" width="150" height="40" as="geometry" />
        </mxCell>
        <mxCell id="CIz0bAsOg30vxrF3J3EW-13" value="" style="rounded=0;whiteSpace=wrap;html=1;" vertex="1" parent="CIz0bAsOg30vxrF3J3EW-12">
          <mxGeometry x="30" width="120" height="40" as="geometry" />
        </mxCell>
        <mxCell id="CIz0bAsOg30vxrF3J3EW-14" value="4" style="text;html=1;align=center;verticalAlign=middle;resizable=0;points=[];autosize=1;strokeColor=none;fillColor=none;" vertex="1" parent="CIz0bAsOg30vxrF3J3EW-12">
          <mxGeometry y="5" width="30" height="30" as="geometry" />
        </mxCell>
        <mxCell id="CIz0bAsOg30vxrF3J3EW-15" value="" style="group" vertex="1" connectable="0" parent="CIz0bAsOg30vxrF3J3EW-1">
          <mxGeometry x="90" y="270" width="150" height="40" as="geometry" />
        </mxCell>
        <mxCell id="CIz0bAsOg30vxrF3J3EW-16" value="" style="rounded=0;whiteSpace=wrap;html=1;" vertex="1" parent="CIz0bAsOg30vxrF3J3EW-15">
          <mxGeometry x="30" y="-10" width="120" height="40" as="geometry" />
        </mxCell>
        <mxCell id="CIz0bAsOg30vxrF3J3EW-17" value="3" style="text;html=1;align=center;verticalAlign=middle;resizable=0;points=[];autosize=1;strokeColor=none;fillColor=none;" vertex="1" parent="CIz0bAsOg30vxrF3J3EW-15">
          <mxGeometry y="5" width="30" height="30" as="geometry" />
        </mxCell>
        <mxCell id="CIz0bAsOg30vxrF3J3EW-18" value="" style="group" vertex="1" connectable="0" parent="CIz0bAsOg30vxrF3J3EW-1">
          <mxGeometry x="90" y="380" width="150" height="40" as="geometry" />
        </mxCell>
        <mxCell id="CIz0bAsOg30vxrF3J3EW-19" value="" style="rounded=0;whiteSpace=wrap;html=1;" vertex="1" parent="CIz0bAsOg30vxrF3J3EW-18">
          <mxGeometry x="30" width="120" height="40" as="geometry" />
        </mxCell>
        <mxCell id="CIz0bAsOg30vxrF3J3EW-20" value="5" style="text;html=1;align=center;verticalAlign=middle;resizable=0;points=[];autosize=1;strokeColor=none;fillColor=none;" vertex="1" parent="CIz0bAsOg30vxrF3J3EW-18">
          <mxGeometry y="5" width="30" height="30" as="geometry" />
        </mxCell>
        <mxCell id="CIz0bAsOg30vxrF3J3EW-21" value="" style="group" vertex="1" connectable="0" parent="CIz0bAsOg30vxrF3J3EW-1">
          <mxGeometry x="90" y="440" width="150" height="40" as="geometry" />
        </mxCell>
        <mxCell id="CIz0bAsOg30vxrF3J3EW-22" value="" style="rounded=0;whiteSpace=wrap;html=1;" vertex="1" parent="CIz0bAsOg30vxrF3J3EW-21">
          <mxGeometry x="30" width="120" height="40" as="geometry" />
        </mxCell>
        <mxCell id="CIz0bAsOg30vxrF3J3EW-23" value="6" style="text;html=1;align=center;verticalAlign=middle;resizable=0;points=[];autosize=1;strokeColor=none;fillColor=none;" vertex="1" parent="CIz0bAsOg30vxrF3J3EW-21">
          <mxGeometry y="5" width="30" height="30" as="geometry" />
        </mxCell>
        <mxCell id="CIz0bAsOg30vxrF3J3EW-24" value="" style="group" vertex="1" connectable="0" parent="CIz0bAsOg30vxrF3J3EW-1">
          <mxGeometry x="90" y="500" width="150" height="40" as="geometry" />
        </mxCell>
        <mxCell id="CIz0bAsOg30vxrF3J3EW-25" value="" style="rounded=0;whiteSpace=wrap;html=1;" vertex="1" parent="CIz0bAsOg30vxrF3J3EW-24">
          <mxGeometry x="30" width="120" height="40" as="geometry" />
        </mxCell>
        <mxCell id="CIz0bAsOg30vxrF3J3EW-26" value="7" style="text;html=1;align=center;verticalAlign=middle;resizable=0;points=[];autosize=1;strokeColor=none;fillColor=none;" vertex="1" parent="CIz0bAsOg30vxrF3J3EW-24">
          <mxGeometry y="5" width="30" height="30" as="geometry" />
        </mxCell>
        <mxCell id="CIz0bAsOg30vxrF3J3EW-27" value="" style="group" vertex="1" connectable="0" parent="CIz0bAsOg30vxrF3J3EW-1">
          <mxGeometry x="90" y="620" width="150" height="40" as="geometry" />
        </mxCell>
        <mxCell id="CIz0bAsOg30vxrF3J3EW-28" value="" style="rounded=0;whiteSpace=wrap;html=1;" vertex="1" parent="CIz0bAsOg30vxrF3J3EW-27">
          <mxGeometry x="30" width="120" height="40" as="geometry" />
        </mxCell>
        <mxCell id="CIz0bAsOg30vxrF3J3EW-29" value="9" style="text;html=1;align=center;verticalAlign=middle;resizable=0;points=[];autosize=1;strokeColor=none;fillColor=none;" vertex="1" parent="CIz0bAsOg30vxrF3J3EW-27">
          <mxGeometry y="5" width="30" height="30" as="geometry" />
        </mxCell>
        <mxCell id="CIz0bAsOg30vxrF3J3EW-30" value="" style="group" vertex="1" connectable="0" parent="CIz0bAsOg30vxrF3J3EW-1">
          <mxGeometry x="90" y="570" width="150" height="40" as="geometry" />
        </mxCell>
        <mxCell id="CIz0bAsOg30vxrF3J3EW-31" value="" style="rounded=0;whiteSpace=wrap;html=1;" vertex="1" parent="CIz0bAsOg30vxrF3J3EW-30">
          <mxGeometry x="30" y="-10" width="120" height="40" as="geometry" />
        </mxCell>
        <mxCell id="CIz0bAsOg30vxrF3J3EW-32" value="8" style="text;html=1;align=center;verticalAlign=middle;resizable=0;points=[];autosize=1;strokeColor=none;fillColor=none;" vertex="1" parent="CIz0bAsOg30vxrF3J3EW-30">
          <mxGeometry y="5" width="30" height="30" as="geometry" />
        </mxCell>
        <mxCell id="CIz0bAsOg30vxrF3J3EW-33" value="Tamanha = 10" style="text;html=1;align=center;verticalAlign=middle;resizable=0;points=[];autosize=1;strokeColor=none;fillColor=none;" vertex="1" parent="CIz0bAsOg30vxrF3J3EW-1">
          <mxGeometry x="30" y="10" width="100" height="30" as="geometry" />
        </mxCell>
        <mxCell id="CIz0bAsOg30vxrF3J3EW-34" value="FÃ³rmula hash: %10 (mod)" style="text;html=1;align=center;verticalAlign=middle;resizable=0;points=[];autosize=1;strokeColor=none;fillColor=none;" vertex="1" parent="CIz0bAsOg30vxrF3J3EW-1">
          <mxGeometry x="160" y="10" width="160" height="30" as="geometry" />
        </mxCell>
        <mxCell id="ww7cCeZaX6HQAxeSu75F-0" value="inserir 83" style="text;html=1;align=center;verticalAlign=middle;resizable=0;points=[];autosize=1;strokeColor=none;fillColor=none;" vertex="1" parent="CIz0bAsOg30vxrF3J3EW-1">
          <mxGeometry x="350" y="90" width="70" height="30" as="geometry" />
        </mxCell>
      </root>
    </mxGraphModel>
  </diagram>
  <diagram name="5" id="fkrM8vhcsyf4j7fPoZcN">
    <mxGraphModel dx="995" dy="592" grid="1" gridSize="10" guides="1" tooltips="1" connect="1" arrows="1" fold="1" page="1" pageScale="1" pageWidth="850" pageHeight="1100" math="0" shadow="0">
      <root>
        <mxCell id="pPpva2xlLS-iOMouWLxt-0" />
        <mxCell id="pPpva2xlLS-iOMouWLxt-1" parent="pPpva2xlLS-iOMouWLxt-0" />
        <mxCell id="pPpva2xlLS-iOMouWLxt-2" value="" style="group" vertex="1" connectable="0" parent="pPpva2xlLS-iOMouWLxt-1">
          <mxGeometry x="90" y="80" width="150" height="40" as="geometry" />
        </mxCell>
        <mxCell id="pPpva2xlLS-iOMouWLxt-3" value="" style="rounded=0;whiteSpace=wrap;html=1;" vertex="1" parent="pPpva2xlLS-iOMouWLxt-2">
          <mxGeometry x="30" width="120" height="40" as="geometry" />
        </mxCell>
        <mxCell id="pPpva2xlLS-iOMouWLxt-4" value="0" style="text;html=1;align=center;verticalAlign=middle;resizable=0;points=[];autosize=1;strokeColor=none;fillColor=none;" vertex="1" parent="pPpva2xlLS-iOMouWLxt-2">
          <mxGeometry y="5" width="30" height="30" as="geometry" />
        </mxCell>
        <mxCell id="pPpva2xlLS-iOMouWLxt-5" value="" style="group" vertex="1" connectable="0" parent="pPpva2xlLS-iOMouWLxt-1">
          <mxGeometry x="90" y="140" width="150" height="40" as="geometry" />
        </mxCell>
        <mxCell id="pPpva2xlLS-iOMouWLxt-6" value="" style="rounded=0;whiteSpace=wrap;html=1;" vertex="1" parent="pPpva2xlLS-iOMouWLxt-5">
          <mxGeometry x="30" width="120" height="40" as="geometry" />
        </mxCell>
        <mxCell id="pPpva2xlLS-iOMouWLxt-7" value="1" style="text;html=1;align=center;verticalAlign=middle;resizable=0;points=[];autosize=1;strokeColor=none;fillColor=none;" vertex="1" parent="pPpva2xlLS-iOMouWLxt-5">
          <mxGeometry y="5" width="30" height="30" as="geometry" />
        </mxCell>
        <mxCell id="pPpva2xlLS-iOMouWLxt-8" value="" style="group" vertex="1" connectable="0" parent="pPpva2xlLS-iOMouWLxt-1">
          <mxGeometry x="90" y="200" width="150" height="40" as="geometry" />
        </mxCell>
        <mxCell id="pPpva2xlLS-iOMouWLxt-9" value="" style="rounded=0;whiteSpace=wrap;html=1;" vertex="1" parent="pPpva2xlLS-iOMouWLxt-8">
          <mxGeometry x="30" width="120" height="40" as="geometry" />
        </mxCell>
        <mxCell id="pPpva2xlLS-iOMouWLxt-10" value="2" style="text;html=1;align=center;verticalAlign=middle;resizable=0;points=[];autosize=1;strokeColor=none;fillColor=none;" vertex="1" parent="pPpva2xlLS-iOMouWLxt-8">
          <mxGeometry y="5" width="30" height="30" as="geometry" />
        </mxCell>
        <mxCell id="pPpva2xlLS-iOMouWLxt-11" value="22" style="text;html=1;align=center;verticalAlign=middle;resizable=0;points=[];autosize=1;strokeColor=none;fillColor=none;" vertex="1" parent="pPpva2xlLS-iOMouWLxt-8">
          <mxGeometry x="70" y="5" width="40" height="30" as="geometry" />
        </mxCell>
        <mxCell id="pPpva2xlLS-iOMouWLxt-12" value="" style="group" vertex="1" connectable="0" parent="pPpva2xlLS-iOMouWLxt-1">
          <mxGeometry x="90" y="320" width="150" height="40" as="geometry" />
        </mxCell>
        <mxCell id="pPpva2xlLS-iOMouWLxt-13" value="" style="rounded=0;whiteSpace=wrap;html=1;" vertex="1" parent="pPpva2xlLS-iOMouWLxt-12">
          <mxGeometry x="30" width="120" height="40" as="geometry" />
        </mxCell>
        <mxCell id="pPpva2xlLS-iOMouWLxt-14" value="4" style="text;html=1;align=center;verticalAlign=middle;resizable=0;points=[];autosize=1;strokeColor=none;fillColor=none;" vertex="1" parent="pPpva2xlLS-iOMouWLxt-12">
          <mxGeometry y="5" width="30" height="30" as="geometry" />
        </mxCell>
        <mxCell id="pPpva2xlLS-iOMouWLxt-15" value="" style="group" vertex="1" connectable="0" parent="pPpva2xlLS-iOMouWLxt-1">
          <mxGeometry x="90" y="270" width="150" height="40" as="geometry" />
        </mxCell>
        <mxCell id="pPpva2xlLS-iOMouWLxt-16" value="" style="rounded=0;whiteSpace=wrap;html=1;" vertex="1" parent="pPpva2xlLS-iOMouWLxt-15">
          <mxGeometry x="30" y="-10" width="120" height="40" as="geometry" />
        </mxCell>
        <mxCell id="pPpva2xlLS-iOMouWLxt-17" value="3" style="text;html=1;align=center;verticalAlign=middle;resizable=0;points=[];autosize=1;strokeColor=none;fillColor=none;" vertex="1" parent="pPpva2xlLS-iOMouWLxt-15">
          <mxGeometry y="5" width="30" height="30" as="geometry" />
        </mxCell>
        <mxCell id="jXf9RVWbE6sqk8PI2fgb-0" value="83" style="text;html=1;align=center;verticalAlign=middle;resizable=0;points=[];autosize=1;strokeColor=none;fillColor=none;" vertex="1" parent="pPpva2xlLS-iOMouWLxt-15">
          <mxGeometry x="70" y="-5" width="40" height="30" as="geometry" />
        </mxCell>
        <mxCell id="pPpva2xlLS-iOMouWLxt-18" value="" style="group" vertex="1" connectable="0" parent="pPpva2xlLS-iOMouWLxt-1">
          <mxGeometry x="90" y="380" width="150" height="40" as="geometry" />
        </mxCell>
        <mxCell id="pPpva2xlLS-iOMouWLxt-19" value="" style="rounded=0;whiteSpace=wrap;html=1;" vertex="1" parent="pPpva2xlLS-iOMouWLxt-18">
          <mxGeometry x="30" width="120" height="40" as="geometry" />
        </mxCell>
        <mxCell id="pPpva2xlLS-iOMouWLxt-20" value="5" style="text;html=1;align=center;verticalAlign=middle;resizable=0;points=[];autosize=1;strokeColor=none;fillColor=none;" vertex="1" parent="pPpva2xlLS-iOMouWLxt-18">
          <mxGeometry y="5" width="30" height="30" as="geometry" />
        </mxCell>
        <mxCell id="pPpva2xlLS-iOMouWLxt-21" value="" style="group" vertex="1" connectable="0" parent="pPpva2xlLS-iOMouWLxt-1">
          <mxGeometry x="90" y="440" width="150" height="40" as="geometry" />
        </mxCell>
        <mxCell id="pPpva2xlLS-iOMouWLxt-22" value="" style="rounded=0;whiteSpace=wrap;html=1;" vertex="1" parent="pPpva2xlLS-iOMouWLxt-21">
          <mxGeometry x="30" width="120" height="40" as="geometry" />
        </mxCell>
        <mxCell id="pPpva2xlLS-iOMouWLxt-23" value="6" style="text;html=1;align=center;verticalAlign=middle;resizable=0;points=[];autosize=1;strokeColor=none;fillColor=none;" vertex="1" parent="pPpva2xlLS-iOMouWLxt-21">
          <mxGeometry y="5" width="30" height="30" as="geometry" />
        </mxCell>
        <mxCell id="pPpva2xlLS-iOMouWLxt-24" value="" style="group" vertex="1" connectable="0" parent="pPpva2xlLS-iOMouWLxt-1">
          <mxGeometry x="90" y="500" width="150" height="40" as="geometry" />
        </mxCell>
        <mxCell id="pPpva2xlLS-iOMouWLxt-25" value="" style="rounded=0;whiteSpace=wrap;html=1;" vertex="1" parent="pPpva2xlLS-iOMouWLxt-24">
          <mxGeometry x="30" width="120" height="40" as="geometry" />
        </mxCell>
        <mxCell id="pPpva2xlLS-iOMouWLxt-26" value="7" style="text;html=1;align=center;verticalAlign=middle;resizable=0;points=[];autosize=1;strokeColor=none;fillColor=none;" vertex="1" parent="pPpva2xlLS-iOMouWLxt-24">
          <mxGeometry y="5" width="30" height="30" as="geometry" />
        </mxCell>
        <mxCell id="pPpva2xlLS-iOMouWLxt-27" value="" style="group" vertex="1" connectable="0" parent="pPpva2xlLS-iOMouWLxt-1">
          <mxGeometry x="90" y="620" width="150" height="40" as="geometry" />
        </mxCell>
        <mxCell id="pPpva2xlLS-iOMouWLxt-28" value="" style="rounded=0;whiteSpace=wrap;html=1;" vertex="1" parent="pPpva2xlLS-iOMouWLxt-27">
          <mxGeometry x="30" width="120" height="40" as="geometry" />
        </mxCell>
        <mxCell id="pPpva2xlLS-iOMouWLxt-29" value="9" style="text;html=1;align=center;verticalAlign=middle;resizable=0;points=[];autosize=1;strokeColor=none;fillColor=none;" vertex="1" parent="pPpva2xlLS-iOMouWLxt-27">
          <mxGeometry y="5" width="30" height="30" as="geometry" />
        </mxCell>
        <mxCell id="pPpva2xlLS-iOMouWLxt-30" value="" style="group" vertex="1" connectable="0" parent="pPpva2xlLS-iOMouWLxt-1">
          <mxGeometry x="90" y="570" width="150" height="40" as="geometry" />
        </mxCell>
        <mxCell id="pPpva2xlLS-iOMouWLxt-31" value="" style="rounded=0;whiteSpace=wrap;html=1;" vertex="1" parent="pPpva2xlLS-iOMouWLxt-30">
          <mxGeometry x="30" y="-10" width="120" height="40" as="geometry" />
        </mxCell>
        <mxCell id="pPpva2xlLS-iOMouWLxt-32" value="8" style="text;html=1;align=center;verticalAlign=middle;resizable=0;points=[];autosize=1;strokeColor=none;fillColor=none;" vertex="1" parent="pPpva2xlLS-iOMouWLxt-30">
          <mxGeometry y="5" width="30" height="30" as="geometry" />
        </mxCell>
        <mxCell id="pPpva2xlLS-iOMouWLxt-33" value="Tamanha = 10" style="text;html=1;align=center;verticalAlign=middle;resizable=0;points=[];autosize=1;strokeColor=none;fillColor=none;" vertex="1" parent="pPpva2xlLS-iOMouWLxt-1">
          <mxGeometry x="30" y="10" width="100" height="30" as="geometry" />
        </mxCell>
        <mxCell id="pPpva2xlLS-iOMouWLxt-34" value="FÃ³rmula hash: %10 (mod)" style="text;html=1;align=center;verticalAlign=middle;resizable=0;points=[];autosize=1;strokeColor=none;fillColor=none;" vertex="1" parent="pPpva2xlLS-iOMouWLxt-1">
          <mxGeometry x="160" y="10" width="160" height="30" as="geometry" />
        </mxCell>
        <mxCell id="pPpva2xlLS-iOMouWLxt-35" value="inserir 83" style="text;html=1;align=center;verticalAlign=middle;resizable=0;points=[];autosize=1;strokeColor=none;fillColor=none;" vertex="1" parent="pPpva2xlLS-iOMouWLxt-1">
          <mxGeometry x="350" y="90" width="70" height="30" as="geometry" />
        </mxCell>
      </root>
    </mxGraphModel>
  </diagram>
  <diagram name="6" id="MGVuBDT7jKFMhcHczndH">
    <mxGraphModel dx="995" dy="592" grid="1" gridSize="10" guides="1" tooltips="1" connect="1" arrows="1" fold="1" page="1" pageScale="1" pageWidth="850" pageHeight="1100" math="0" shadow="0">
      <root>
        <mxCell id="ymBJ9V-2rx9ErAxSGpmj-0" />
        <mxCell id="ymBJ9V-2rx9ErAxSGpmj-1" parent="ymBJ9V-2rx9ErAxSGpmj-0" />
        <mxCell id="ymBJ9V-2rx9ErAxSGpmj-2" value="" style="group" vertex="1" connectable="0" parent="ymBJ9V-2rx9ErAxSGpmj-1">
          <mxGeometry x="90" y="80" width="150" height="40" as="geometry" />
        </mxCell>
        <mxCell id="ymBJ9V-2rx9ErAxSGpmj-3" value="" style="rounded=0;whiteSpace=wrap;html=1;" vertex="1" parent="ymBJ9V-2rx9ErAxSGpmj-2">
          <mxGeometry x="30" width="120" height="40" as="geometry" />
        </mxCell>
        <mxCell id="ymBJ9V-2rx9ErAxSGpmj-4" value="0" style="text;html=1;align=center;verticalAlign=middle;resizable=0;points=[];autosize=1;strokeColor=none;fillColor=none;" vertex="1" parent="ymBJ9V-2rx9ErAxSGpmj-2">
          <mxGeometry y="5" width="30" height="30" as="geometry" />
        </mxCell>
        <mxCell id="ymBJ9V-2rx9ErAxSGpmj-5" value="" style="group" vertex="1" connectable="0" parent="ymBJ9V-2rx9ErAxSGpmj-1">
          <mxGeometry x="90" y="140" width="150" height="40" as="geometry" />
        </mxCell>
        <mxCell id="ymBJ9V-2rx9ErAxSGpmj-6" value="" style="rounded=0;whiteSpace=wrap;html=1;" vertex="1" parent="ymBJ9V-2rx9ErAxSGpmj-5">
          <mxGeometry x="30" width="120" height="40" as="geometry" />
        </mxCell>
        <mxCell id="ymBJ9V-2rx9ErAxSGpmj-7" value="1" style="text;html=1;align=center;verticalAlign=middle;resizable=0;points=[];autosize=1;strokeColor=none;fillColor=none;" vertex="1" parent="ymBJ9V-2rx9ErAxSGpmj-5">
          <mxGeometry y="5" width="30" height="30" as="geometry" />
        </mxCell>
        <mxCell id="ymBJ9V-2rx9ErAxSGpmj-8" value="" style="group" vertex="1" connectable="0" parent="ymBJ9V-2rx9ErAxSGpmj-1">
          <mxGeometry x="90" y="200" width="150" height="40" as="geometry" />
        </mxCell>
        <mxCell id="ymBJ9V-2rx9ErAxSGpmj-9" value="" style="rounded=0;whiteSpace=wrap;html=1;" vertex="1" parent="ymBJ9V-2rx9ErAxSGpmj-8">
          <mxGeometry x="30" width="120" height="40" as="geometry" />
        </mxCell>
        <mxCell id="ymBJ9V-2rx9ErAxSGpmj-10" value="2" style="text;html=1;align=center;verticalAlign=middle;resizable=0;points=[];autosize=1;strokeColor=none;fillColor=none;" vertex="1" parent="ymBJ9V-2rx9ErAxSGpmj-8">
          <mxGeometry y="5" width="30" height="30" as="geometry" />
        </mxCell>
        <mxCell id="ymBJ9V-2rx9ErAxSGpmj-11" value="22" style="text;html=1;align=center;verticalAlign=middle;resizable=0;points=[];autosize=1;strokeColor=none;fillColor=none;" vertex="1" parent="ymBJ9V-2rx9ErAxSGpmj-8">
          <mxGeometry x="70" y="5" width="40" height="30" as="geometry" />
        </mxCell>
        <mxCell id="ymBJ9V-2rx9ErAxSGpmj-12" value="" style="group" vertex="1" connectable="0" parent="ymBJ9V-2rx9ErAxSGpmj-1">
          <mxGeometry x="90" y="320" width="150" height="40" as="geometry" />
        </mxCell>
        <mxCell id="ymBJ9V-2rx9ErAxSGpmj-13" value="" style="rounded=0;whiteSpace=wrap;html=1;" vertex="1" parent="ymBJ9V-2rx9ErAxSGpmj-12">
          <mxGeometry x="30" width="120" height="40" as="geometry" />
        </mxCell>
        <mxCell id="ymBJ9V-2rx9ErAxSGpmj-14" value="4" style="text;html=1;align=center;verticalAlign=middle;resizable=0;points=[];autosize=1;strokeColor=none;fillColor=none;" vertex="1" parent="ymBJ9V-2rx9ErAxSGpmj-12">
          <mxGeometry y="5" width="30" height="30" as="geometry" />
        </mxCell>
        <mxCell id="MpazGUpvTdye0o0XtodI-1" value="102" style="text;html=1;align=center;verticalAlign=middle;resizable=0;points=[];autosize=1;strokeColor=none;fillColor=none;" vertex="1" parent="ymBJ9V-2rx9ErAxSGpmj-12">
          <mxGeometry x="70" y="5" width="40" height="30" as="geometry" />
        </mxCell>
        <mxCell id="ymBJ9V-2rx9ErAxSGpmj-15" value="" style="group" vertex="1" connectable="0" parent="ymBJ9V-2rx9ErAxSGpmj-1">
          <mxGeometry x="90" y="270" width="150" height="40" as="geometry" />
        </mxCell>
        <mxCell id="ymBJ9V-2rx9ErAxSGpmj-16" value="" style="rounded=0;whiteSpace=wrap;html=1;" vertex="1" parent="ymBJ9V-2rx9ErAxSGpmj-15">
          <mxGeometry x="30" y="-10" width="120" height="40" as="geometry" />
        </mxCell>
        <mxCell id="ymBJ9V-2rx9ErAxSGpmj-17" value="3" style="text;html=1;align=center;verticalAlign=middle;resizable=0;points=[];autosize=1;strokeColor=none;fillColor=none;" vertex="1" parent="ymBJ9V-2rx9ErAxSGpmj-15">
          <mxGeometry y="5" width="30" height="30" as="geometry" />
        </mxCell>
        <mxCell id="ymBJ9V-2rx9ErAxSGpmj-18" value="83" style="text;html=1;align=center;verticalAlign=middle;resizable=0;points=[];autosize=1;strokeColor=none;fillColor=none;" vertex="1" parent="ymBJ9V-2rx9ErAxSGpmj-15">
          <mxGeometry x="70" y="-5" width="40" height="30" as="geometry" />
        </mxCell>
        <mxCell id="ymBJ9V-2rx9ErAxSGpmj-19" value="" style="group" vertex="1" connectable="0" parent="ymBJ9V-2rx9ErAxSGpmj-1">
          <mxGeometry x="90" y="380" width="150" height="40" as="geometry" />
        </mxCell>
        <mxCell id="ymBJ9V-2rx9ErAxSGpmj-20" value="" style="rounded=0;whiteSpace=wrap;html=1;" vertex="1" parent="ymBJ9V-2rx9ErAxSGpmj-19">
          <mxGeometry x="30" width="120" height="40" as="geometry" />
        </mxCell>
        <mxCell id="ymBJ9V-2rx9ErAxSGpmj-21" value="5" style="text;html=1;align=center;verticalAlign=middle;resizable=0;points=[];autosize=1;strokeColor=none;fillColor=none;" vertex="1" parent="ymBJ9V-2rx9ErAxSGpmj-19">
          <mxGeometry y="5" width="30" height="30" as="geometry" />
        </mxCell>
        <mxCell id="ymBJ9V-2rx9ErAxSGpmj-22" value="" style="group" vertex="1" connectable="0" parent="ymBJ9V-2rx9ErAxSGpmj-1">
          <mxGeometry x="90" y="440" width="150" height="40" as="geometry" />
        </mxCell>
        <mxCell id="ymBJ9V-2rx9ErAxSGpmj-23" value="" style="rounded=0;whiteSpace=wrap;html=1;" vertex="1" parent="ymBJ9V-2rx9ErAxSGpmj-22">
          <mxGeometry x="30" width="120" height="40" as="geometry" />
        </mxCell>
        <mxCell id="ymBJ9V-2rx9ErAxSGpmj-24" value="6" style="text;html=1;align=center;verticalAlign=middle;resizable=0;points=[];autosize=1;strokeColor=none;fillColor=none;" vertex="1" parent="ymBJ9V-2rx9ErAxSGpmj-22">
          <mxGeometry y="5" width="30" height="30" as="geometry" />
        </mxCell>
        <mxCell id="ymBJ9V-2rx9ErAxSGpmj-25" value="" style="group" vertex="1" connectable="0" parent="ymBJ9V-2rx9ErAxSGpmj-1">
          <mxGeometry x="90" y="500" width="150" height="40" as="geometry" />
        </mxCell>
        <mxCell id="ymBJ9V-2rx9ErAxSGpmj-26" value="" style="rounded=0;whiteSpace=wrap;html=1;" vertex="1" parent="ymBJ9V-2rx9ErAxSGpmj-25">
          <mxGeometry x="30" width="120" height="40" as="geometry" />
        </mxCell>
        <mxCell id="ymBJ9V-2rx9ErAxSGpmj-27" value="7" style="text;html=1;align=center;verticalAlign=middle;resizable=0;points=[];autosize=1;strokeColor=none;fillColor=none;" vertex="1" parent="ymBJ9V-2rx9ErAxSGpmj-25">
          <mxGeometry y="5" width="30" height="30" as="geometry" />
        </mxCell>
        <mxCell id="ymBJ9V-2rx9ErAxSGpmj-28" value="" style="group" vertex="1" connectable="0" parent="ymBJ9V-2rx9ErAxSGpmj-1">
          <mxGeometry x="90" y="620" width="150" height="40" as="geometry" />
        </mxCell>
        <mxCell id="ymBJ9V-2rx9ErAxSGpmj-29" value="" style="rounded=0;whiteSpace=wrap;html=1;" vertex="1" parent="ymBJ9V-2rx9ErAxSGpmj-28">
          <mxGeometry x="30" width="120" height="40" as="geometry" />
        </mxCell>
        <mxCell id="ymBJ9V-2rx9ErAxSGpmj-30" value="9" style="text;html=1;align=center;verticalAlign=middle;resizable=0;points=[];autosize=1;strokeColor=none;fillColor=none;" vertex="1" parent="ymBJ9V-2rx9ErAxSGpmj-28">
          <mxGeometry y="5" width="30" height="30" as="geometry" />
        </mxCell>
        <mxCell id="ymBJ9V-2rx9ErAxSGpmj-31" value="" style="group" vertex="1" connectable="0" parent="ymBJ9V-2rx9ErAxSGpmj-1">
          <mxGeometry x="90" y="570" width="150" height="40" as="geometry" />
        </mxCell>
        <mxCell id="ymBJ9V-2rx9ErAxSGpmj-32" value="" style="rounded=0;whiteSpace=wrap;html=1;" vertex="1" parent="ymBJ9V-2rx9ErAxSGpmj-31">
          <mxGeometry x="30" y="-10" width="120" height="40" as="geometry" />
        </mxCell>
        <mxCell id="ymBJ9V-2rx9ErAxSGpmj-33" value="8" style="text;html=1;align=center;verticalAlign=middle;resizable=0;points=[];autosize=1;strokeColor=none;fillColor=none;" vertex="1" parent="ymBJ9V-2rx9ErAxSGpmj-31">
          <mxGeometry y="5" width="30" height="30" as="geometry" />
        </mxCell>
        <mxCell id="ymBJ9V-2rx9ErAxSGpmj-34" value="Tamanha = 10" style="text;html=1;align=center;verticalAlign=middle;resizable=0;points=[];autosize=1;strokeColor=none;fillColor=none;" vertex="1" parent="ymBJ9V-2rx9ErAxSGpmj-1">
          <mxGeometry x="30" y="10" width="100" height="30" as="geometry" />
        </mxCell>
        <mxCell id="ymBJ9V-2rx9ErAxSGpmj-35" value="FÃ³rmula hash: %10 (mod)" style="text;html=1;align=center;verticalAlign=middle;resizable=0;points=[];autosize=1;strokeColor=none;fillColor=none;" vertex="1" parent="ymBJ9V-2rx9ErAxSGpmj-1">
          <mxGeometry x="160" y="10" width="160" height="30" as="geometry" />
        </mxCell>
        <mxCell id="MpazGUpvTdye0o0XtodI-0" value="Inserir 102" style="text;html=1;align=center;verticalAlign=middle;resizable=0;points=[];autosize=1;strokeColor=none;fillColor=none;" vertex="1" parent="ymBJ9V-2rx9ErAxSGpmj-1">
          <mxGeometry x="285" y="110" width="80" height="30" as="geometry" />
        </mxCell>
      </root>
    </mxGraphModel>
  </diagram>
  <diagram name="7" id="ktIgyGMhacJIPMB4Mh0L">
    <mxGraphModel dx="995" dy="592" grid="1" gridSize="10" guides="1" tooltips="1" connect="1" arrows="1" fold="1" page="1" pageScale="1" pageWidth="850" pageHeight="1100" math="0" shadow="0">
      <root>
        <mxCell id="UFVYDknFq83LyztpFVeo-0" />
        <mxCell id="UFVYDknFq83LyztpFVeo-1" parent="UFVYDknFq83LyztpFVeo-0" />
        <mxCell id="UFVYDknFq83LyztpFVeo-2" value="" style="group" vertex="1" connectable="0" parent="UFVYDknFq83LyztpFVeo-1">
          <mxGeometry x="90" y="80" width="150" height="40" as="geometry" />
        </mxCell>
        <mxCell id="UFVYDknFq83LyztpFVeo-3" value="" style="rounded=0;whiteSpace=wrap;html=1;" vertex="1" parent="UFVYDknFq83LyztpFVeo-2">
          <mxGeometry x="30" width="120" height="40" as="geometry" />
        </mxCell>
        <mxCell id="UFVYDknFq83LyztpFVeo-4" value="0" style="text;html=1;align=center;verticalAlign=middle;resizable=0;points=[];autosize=1;strokeColor=none;fillColor=none;" vertex="1" parent="UFVYDknFq83LyztpFVeo-2">
          <mxGeometry y="5" width="30" height="30" as="geometry" />
        </mxCell>
        <mxCell id="UFVYDknFq83LyztpFVeo-5" value="" style="group" vertex="1" connectable="0" parent="UFVYDknFq83LyztpFVeo-1">
          <mxGeometry x="90" y="140" width="150" height="40" as="geometry" />
        </mxCell>
        <mxCell id="UFVYDknFq83LyztpFVeo-6" value="" style="rounded=0;whiteSpace=wrap;html=1;" vertex="1" parent="UFVYDknFq83LyztpFVeo-5">
          <mxGeometry x="30" width="120" height="40" as="geometry" />
        </mxCell>
        <mxCell id="UFVYDknFq83LyztpFVeo-7" value="1" style="text;html=1;align=center;verticalAlign=middle;resizable=0;points=[];autosize=1;strokeColor=none;fillColor=none;" vertex="1" parent="UFVYDknFq83LyztpFVeo-5">
          <mxGeometry y="5" width="30" height="30" as="geometry" />
        </mxCell>
        <mxCell id="UFVYDknFq83LyztpFVeo-8" value="" style="group" vertex="1" connectable="0" parent="UFVYDknFq83LyztpFVeo-1">
          <mxGeometry x="90" y="200" width="150" height="40" as="geometry" />
        </mxCell>
        <mxCell id="UFVYDknFq83LyztpFVeo-9" value="" style="rounded=0;whiteSpace=wrap;html=1;" vertex="1" parent="UFVYDknFq83LyztpFVeo-8">
          <mxGeometry x="30" width="120" height="40" as="geometry" />
        </mxCell>
        <mxCell id="UFVYDknFq83LyztpFVeo-10" value="2" style="text;html=1;align=center;verticalAlign=middle;resizable=0;points=[];autosize=1;strokeColor=none;fillColor=none;" vertex="1" parent="UFVYDknFq83LyztpFVeo-8">
          <mxGeometry y="5" width="30" height="30" as="geometry" />
        </mxCell>
        <mxCell id="UFVYDknFq83LyztpFVeo-11" value="22" style="text;html=1;align=center;verticalAlign=middle;resizable=0;points=[];autosize=1;strokeColor=none;fillColor=none;" vertex="1" parent="UFVYDknFq83LyztpFVeo-8">
          <mxGeometry x="70" y="5" width="40" height="30" as="geometry" />
        </mxCell>
        <mxCell id="UFVYDknFq83LyztpFVeo-12" value="" style="group" vertex="1" connectable="0" parent="UFVYDknFq83LyztpFVeo-1">
          <mxGeometry x="90" y="320" width="150" height="40" as="geometry" />
        </mxCell>
        <mxCell id="UFVYDknFq83LyztpFVeo-13" value="" style="rounded=0;whiteSpace=wrap;html=1;" vertex="1" parent="UFVYDknFq83LyztpFVeo-12">
          <mxGeometry x="30" width="120" height="40" as="geometry" />
        </mxCell>
        <mxCell id="UFVYDknFq83LyztpFVeo-14" value="4" style="text;html=1;align=center;verticalAlign=middle;resizable=0;points=[];autosize=1;strokeColor=none;fillColor=none;" vertex="1" parent="UFVYDknFq83LyztpFVeo-12">
          <mxGeometry y="5" width="30" height="30" as="geometry" />
        </mxCell>
        <mxCell id="UFVYDknFq83LyztpFVeo-15" value="102" style="text;html=1;align=center;verticalAlign=middle;resizable=0;points=[];autosize=1;strokeColor=none;fillColor=none;" vertex="1" parent="UFVYDknFq83LyztpFVeo-12">
          <mxGeometry x="70" y="5" width="40" height="30" as="geometry" />
        </mxCell>
        <mxCell id="UFVYDknFq83LyztpFVeo-16" value="" style="group" vertex="1" connectable="0" parent="UFVYDknFq83LyztpFVeo-1">
          <mxGeometry x="90" y="270" width="150" height="40" as="geometry" />
        </mxCell>
        <mxCell id="UFVYDknFq83LyztpFVeo-17" value="" style="rounded=0;whiteSpace=wrap;html=1;" vertex="1" parent="UFVYDknFq83LyztpFVeo-16">
          <mxGeometry x="30" y="-10" width="120" height="40" as="geometry" />
        </mxCell>
        <mxCell id="UFVYDknFq83LyztpFVeo-18" value="3" style="text;html=1;align=center;verticalAlign=middle;resizable=0;points=[];autosize=1;strokeColor=none;fillColor=none;" vertex="1" parent="UFVYDknFq83LyztpFVeo-16">
          <mxGeometry y="5" width="30" height="30" as="geometry" />
        </mxCell>
        <mxCell id="UFVYDknFq83LyztpFVeo-19" value="83" style="text;html=1;align=center;verticalAlign=middle;resizable=0;points=[];autosize=1;strokeColor=none;fillColor=none;" vertex="1" parent="UFVYDknFq83LyztpFVeo-16">
          <mxGeometry x="70" y="-5" width="40" height="30" as="geometry" />
        </mxCell>
        <mxCell id="UFVYDknFq83LyztpFVeo-20" value="" style="group" vertex="1" connectable="0" parent="UFVYDknFq83LyztpFVeo-1">
          <mxGeometry x="90" y="380" width="150" height="40" as="geometry" />
        </mxCell>
        <mxCell id="UFVYDknFq83LyztpFVeo-21" value="" style="rounded=0;whiteSpace=wrap;html=1;" vertex="1" parent="UFVYDknFq83LyztpFVeo-20">
          <mxGeometry x="30" width="120" height="40" as="geometry" />
        </mxCell>
        <mxCell id="UFVYDknFq83LyztpFVeo-22" value="5" style="text;html=1;align=center;verticalAlign=middle;resizable=0;points=[];autosize=1;strokeColor=none;fillColor=none;" vertex="1" parent="UFVYDknFq83LyztpFVeo-20">
          <mxGeometry y="5" width="30" height="30" as="geometry" />
        </mxCell>
        <mxCell id="UFVYDknFq83LyztpFVeo-23" value="" style="group" vertex="1" connectable="0" parent="UFVYDknFq83LyztpFVeo-1">
          <mxGeometry x="90" y="440" width="150" height="40" as="geometry" />
        </mxCell>
        <mxCell id="UFVYDknFq83LyztpFVeo-24" value="" style="rounded=0;whiteSpace=wrap;html=1;" vertex="1" parent="UFVYDknFq83LyztpFVeo-23">
          <mxGeometry x="30" width="120" height="40" as="geometry" />
        </mxCell>
        <mxCell id="UFVYDknFq83LyztpFVeo-25" value="6" style="text;html=1;align=center;verticalAlign=middle;resizable=0;points=[];autosize=1;strokeColor=none;fillColor=none;" vertex="1" parent="UFVYDknFq83LyztpFVeo-23">
          <mxGeometry y="5" width="30" height="30" as="geometry" />
        </mxCell>
        <mxCell id="UFVYDknFq83LyztpFVeo-26" value="" style="group" vertex="1" connectable="0" parent="UFVYDknFq83LyztpFVeo-1">
          <mxGeometry x="90" y="500" width="150" height="40" as="geometry" />
        </mxCell>
        <mxCell id="UFVYDknFq83LyztpFVeo-27" value="" style="rounded=0;whiteSpace=wrap;html=1;" vertex="1" parent="UFVYDknFq83LyztpFVeo-26">
          <mxGeometry x="30" width="120" height="40" as="geometry" />
        </mxCell>
        <mxCell id="UFVYDknFq83LyztpFVeo-28" value="7" style="text;html=1;align=center;verticalAlign=middle;resizable=0;points=[];autosize=1;strokeColor=none;fillColor=none;" vertex="1" parent="UFVYDknFq83LyztpFVeo-26">
          <mxGeometry y="5" width="30" height="30" as="geometry" />
        </mxCell>
        <mxCell id="UFVYDknFq83LyztpFVeo-29" value="" style="group" vertex="1" connectable="0" parent="UFVYDknFq83LyztpFVeo-1">
          <mxGeometry x="90" y="620" width="150" height="40" as="geometry" />
        </mxCell>
        <mxCell id="UFVYDknFq83LyztpFVeo-30" value="" style="rounded=0;whiteSpace=wrap;html=1;" vertex="1" parent="UFVYDknFq83LyztpFVeo-29">
          <mxGeometry x="30" width="120" height="40" as="geometry" />
        </mxCell>
        <mxCell id="UFVYDknFq83LyztpFVeo-31" value="9" style="text;html=1;align=center;verticalAlign=middle;resizable=0;points=[];autosize=1;strokeColor=none;fillColor=none;" vertex="1" parent="UFVYDknFq83LyztpFVeo-29">
          <mxGeometry y="5" width="30" height="30" as="geometry" />
        </mxCell>
        <mxCell id="UFVYDknFq83LyztpFVeo-32" value="" style="group" vertex="1" connectable="0" parent="UFVYDknFq83LyztpFVeo-1">
          <mxGeometry x="90" y="570" width="150" height="40" as="geometry" />
        </mxCell>
        <mxCell id="UFVYDknFq83LyztpFVeo-33" value="" style="rounded=0;whiteSpace=wrap;html=1;" vertex="1" parent="UFVYDknFq83LyztpFVeo-32">
          <mxGeometry x="30" y="-10" width="120" height="40" as="geometry" />
        </mxCell>
        <mxCell id="UFVYDknFq83LyztpFVeo-34" value="8" style="text;html=1;align=center;verticalAlign=middle;resizable=0;points=[];autosize=1;strokeColor=none;fillColor=none;" vertex="1" parent="UFVYDknFq83LyztpFVeo-32">
          <mxGeometry y="5" width="30" height="30" as="geometry" />
        </mxCell>
        <mxCell id="UFVYDknFq83LyztpFVeo-35" value="Tamanha = 10" style="text;html=1;align=center;verticalAlign=middle;resizable=0;points=[];autosize=1;strokeColor=none;fillColor=none;" vertex="1" parent="UFVYDknFq83LyztpFVeo-1">
          <mxGeometry x="30" y="10" width="100" height="30" as="geometry" />
        </mxCell>
        <mxCell id="UFVYDknFq83LyztpFVeo-36" value="FÃ³rmula hash: %10 (mod)" style="text;html=1;align=center;verticalAlign=middle;resizable=0;points=[];autosize=1;strokeColor=none;fillColor=none;" vertex="1" parent="UFVYDknFq83LyztpFVeo-1">
          <mxGeometry x="160" y="10" width="160" height="30" as="geometry" />
        </mxCell>
        <mxCell id="UFVYDknFq83LyztpFVeo-37" value="Inserir 53" style="text;html=1;align=center;verticalAlign=middle;resizable=0;points=[];autosize=1;strokeColor=none;fillColor=none;" vertex="1" parent="UFVYDknFq83LyztpFVeo-1">
          <mxGeometry x="290" y="110" width="70" height="30" as="geometry" />
        </mxCell>
      </root>
    </mxGraphModel>
  </diagram>
  <diagram name="8" id="x8NlyGqcNVX0jOSjcB58">
    <mxGraphModel dx="995" dy="592" grid="1" gridSize="10" guides="1" tooltips="1" connect="1" arrows="1" fold="1" page="1" pageScale="1" pageWidth="850" pageHeight="1100" math="0" shadow="0">
      <root>
        <mxCell id="tTUzf7HsbrFPLLt_ZzBP-0" />
        <mxCell id="tTUzf7HsbrFPLLt_ZzBP-1" parent="tTUzf7HsbrFPLLt_ZzBP-0" />
        <mxCell id="tTUzf7HsbrFPLLt_ZzBP-2" value="" style="group" vertex="1" connectable="0" parent="tTUzf7HsbrFPLLt_ZzBP-1">
          <mxGeometry x="90" y="80" width="150" height="40" as="geometry" />
        </mxCell>
        <mxCell id="tTUzf7HsbrFPLLt_ZzBP-3" value="" style="rounded=0;whiteSpace=wrap;html=1;" vertex="1" parent="tTUzf7HsbrFPLLt_ZzBP-2">
          <mxGeometry x="30" width="120" height="40" as="geometry" />
        </mxCell>
        <mxCell id="tTUzf7HsbrFPLLt_ZzBP-4" value="0" style="text;html=1;align=center;verticalAlign=middle;resizable=0;points=[];autosize=1;strokeColor=none;fillColor=none;" vertex="1" parent="tTUzf7HsbrFPLLt_ZzBP-2">
          <mxGeometry y="5" width="30" height="30" as="geometry" />
        </mxCell>
        <mxCell id="tTUzf7HsbrFPLLt_ZzBP-5" value="" style="group" vertex="1" connectable="0" parent="tTUzf7HsbrFPLLt_ZzBP-1">
          <mxGeometry x="90" y="140" width="150" height="40" as="geometry" />
        </mxCell>
        <mxCell id="tTUzf7HsbrFPLLt_ZzBP-6" value="" style="rounded=0;whiteSpace=wrap;html=1;" vertex="1" parent="tTUzf7HsbrFPLLt_ZzBP-5">
          <mxGeometry x="30" width="120" height="40" as="geometry" />
        </mxCell>
        <mxCell id="tTUzf7HsbrFPLLt_ZzBP-7" value="1" style="text;html=1;align=center;verticalAlign=middle;resizable=0;points=[];autosize=1;strokeColor=none;fillColor=none;" vertex="1" parent="tTUzf7HsbrFPLLt_ZzBP-5">
          <mxGeometry y="5" width="30" height="30" as="geometry" />
        </mxCell>
        <mxCell id="tTUzf7HsbrFPLLt_ZzBP-8" value="" style="group" vertex="1" connectable="0" parent="tTUzf7HsbrFPLLt_ZzBP-1">
          <mxGeometry x="90" y="200" width="150" height="40" as="geometry" />
        </mxCell>
        <mxCell id="tTUzf7HsbrFPLLt_ZzBP-9" value="" style="rounded=0;whiteSpace=wrap;html=1;" vertex="1" parent="tTUzf7HsbrFPLLt_ZzBP-8">
          <mxGeometry x="30" width="120" height="40" as="geometry" />
        </mxCell>
        <mxCell id="tTUzf7HsbrFPLLt_ZzBP-10" value="2" style="text;html=1;align=center;verticalAlign=middle;resizable=0;points=[];autosize=1;strokeColor=none;fillColor=none;" vertex="1" parent="tTUzf7HsbrFPLLt_ZzBP-8">
          <mxGeometry y="5" width="30" height="30" as="geometry" />
        </mxCell>
        <mxCell id="tTUzf7HsbrFPLLt_ZzBP-11" value="22" style="text;html=1;align=center;verticalAlign=middle;resizable=0;points=[];autosize=1;strokeColor=none;fillColor=none;" vertex="1" parent="tTUzf7HsbrFPLLt_ZzBP-8">
          <mxGeometry x="70" y="5" width="40" height="30" as="geometry" />
        </mxCell>
        <mxCell id="tTUzf7HsbrFPLLt_ZzBP-12" value="" style="group" vertex="1" connectable="0" parent="tTUzf7HsbrFPLLt_ZzBP-1">
          <mxGeometry x="90" y="320" width="150" height="40" as="geometry" />
        </mxCell>
        <mxCell id="tTUzf7HsbrFPLLt_ZzBP-13" value="" style="rounded=0;whiteSpace=wrap;html=1;" vertex="1" parent="tTUzf7HsbrFPLLt_ZzBP-12">
          <mxGeometry x="30" width="120" height="40" as="geometry" />
        </mxCell>
        <mxCell id="tTUzf7HsbrFPLLt_ZzBP-14" value="4" style="text;html=1;align=center;verticalAlign=middle;resizable=0;points=[];autosize=1;strokeColor=none;fillColor=none;" vertex="1" parent="tTUzf7HsbrFPLLt_ZzBP-12">
          <mxGeometry y="5" width="30" height="30" as="geometry" />
        </mxCell>
        <mxCell id="tTUzf7HsbrFPLLt_ZzBP-15" value="102" style="text;html=1;align=center;verticalAlign=middle;resizable=0;points=[];autosize=1;strokeColor=none;fillColor=none;" vertex="1" parent="tTUzf7HsbrFPLLt_ZzBP-12">
          <mxGeometry x="70" y="5" width="40" height="30" as="geometry" />
        </mxCell>
        <mxCell id="tTUzf7HsbrFPLLt_ZzBP-16" value="" style="group" vertex="1" connectable="0" parent="tTUzf7HsbrFPLLt_ZzBP-1">
          <mxGeometry x="90" y="270" width="150" height="40" as="geometry" />
        </mxCell>
        <mxCell id="tTUzf7HsbrFPLLt_ZzBP-17" value="" style="rounded=0;whiteSpace=wrap;html=1;" vertex="1" parent="tTUzf7HsbrFPLLt_ZzBP-16">
          <mxGeometry x="30" y="-10" width="120" height="40" as="geometry" />
        </mxCell>
        <mxCell id="tTUzf7HsbrFPLLt_ZzBP-18" value="3" style="text;html=1;align=center;verticalAlign=middle;resizable=0;points=[];autosize=1;strokeColor=none;fillColor=none;" vertex="1" parent="tTUzf7HsbrFPLLt_ZzBP-16">
          <mxGeometry y="5" width="30" height="30" as="geometry" />
        </mxCell>
        <mxCell id="tTUzf7HsbrFPLLt_ZzBP-19" value="83" style="text;html=1;align=center;verticalAlign=middle;resizable=0;points=[];autosize=1;strokeColor=none;fillColor=none;" vertex="1" parent="tTUzf7HsbrFPLLt_ZzBP-16">
          <mxGeometry x="70" y="-5" width="40" height="30" as="geometry" />
        </mxCell>
        <mxCell id="tTUzf7HsbrFPLLt_ZzBP-20" value="" style="group" vertex="1" connectable="0" parent="tTUzf7HsbrFPLLt_ZzBP-1">
          <mxGeometry x="90" y="380" width="150" height="40" as="geometry" />
        </mxCell>
        <mxCell id="tTUzf7HsbrFPLLt_ZzBP-21" value="" style="rounded=0;whiteSpace=wrap;html=1;" vertex="1" parent="tTUzf7HsbrFPLLt_ZzBP-20">
          <mxGeometry x="30" width="120" height="40" as="geometry" />
        </mxCell>
        <mxCell id="tTUzf7HsbrFPLLt_ZzBP-22" value="5" style="text;html=1;align=center;verticalAlign=middle;resizable=0;points=[];autosize=1;strokeColor=none;fillColor=none;" vertex="1" parent="tTUzf7HsbrFPLLt_ZzBP-20">
          <mxGeometry y="5" width="30" height="30" as="geometry" />
        </mxCell>
        <mxCell id="tTUzf7HsbrFPLLt_ZzBP-23" value="53" style="text;html=1;align=center;verticalAlign=middle;resizable=0;points=[];autosize=1;strokeColor=none;fillColor=none;" vertex="1" parent="tTUzf7HsbrFPLLt_ZzBP-20">
          <mxGeometry x="70" y="5" width="40" height="30" as="geometry" />
        </mxCell>
        <mxCell id="tTUzf7HsbrFPLLt_ZzBP-24" value="" style="group" vertex="1" connectable="0" parent="tTUzf7HsbrFPLLt_ZzBP-1">
          <mxGeometry x="90" y="440" width="150" height="40" as="geometry" />
        </mxCell>
        <mxCell id="tTUzf7HsbrFPLLt_ZzBP-25" value="" style="rounded=0;whiteSpace=wrap;html=1;" vertex="1" parent="tTUzf7HsbrFPLLt_ZzBP-24">
          <mxGeometry x="30" width="120" height="40" as="geometry" />
        </mxCell>
        <mxCell id="tTUzf7HsbrFPLLt_ZzBP-26" value="6" style="text;html=1;align=center;verticalAlign=middle;resizable=0;points=[];autosize=1;strokeColor=none;fillColor=none;" vertex="1" parent="tTUzf7HsbrFPLLt_ZzBP-24">
          <mxGeometry y="5" width="30" height="30" as="geometry" />
        </mxCell>
        <mxCell id="tTUzf7HsbrFPLLt_ZzBP-27" value="" style="group" vertex="1" connectable="0" parent="tTUzf7HsbrFPLLt_ZzBP-1">
          <mxGeometry x="90" y="500" width="150" height="40" as="geometry" />
        </mxCell>
        <mxCell id="tTUzf7HsbrFPLLt_ZzBP-28" value="" style="rounded=0;whiteSpace=wrap;html=1;" vertex="1" parent="tTUzf7HsbrFPLLt_ZzBP-27">
          <mxGeometry x="30" width="120" height="40" as="geometry" />
        </mxCell>
        <mxCell id="tTUzf7HsbrFPLLt_ZzBP-29" value="7" style="text;html=1;align=center;verticalAlign=middle;resizable=0;points=[];autosize=1;strokeColor=none;fillColor=none;" vertex="1" parent="tTUzf7HsbrFPLLt_ZzBP-27">
          <mxGeometry y="5" width="30" height="30" as="geometry" />
        </mxCell>
        <mxCell id="tTUzf7HsbrFPLLt_ZzBP-30" value="" style="group" vertex="1" connectable="0" parent="tTUzf7HsbrFPLLt_ZzBP-1">
          <mxGeometry x="90" y="620" width="150" height="40" as="geometry" />
        </mxCell>
        <mxCell id="tTUzf7HsbrFPLLt_ZzBP-31" value="" style="rounded=0;whiteSpace=wrap;html=1;" vertex="1" parent="tTUzf7HsbrFPLLt_ZzBP-30">
          <mxGeometry x="30" width="120" height="40" as="geometry" />
        </mxCell>
        <mxCell id="tTUzf7HsbrFPLLt_ZzBP-32" value="9" style="text;html=1;align=center;verticalAlign=middle;resizable=0;points=[];autosize=1;strokeColor=none;fillColor=none;" vertex="1" parent="tTUzf7HsbrFPLLt_ZzBP-30">
          <mxGeometry y="5" width="30" height="30" as="geometry" />
        </mxCell>
        <mxCell id="tTUzf7HsbrFPLLt_ZzBP-33" value="" style="group" vertex="1" connectable="0" parent="tTUzf7HsbrFPLLt_ZzBP-1">
          <mxGeometry x="90" y="570" width="150" height="40" as="geometry" />
        </mxCell>
        <mxCell id="tTUzf7HsbrFPLLt_ZzBP-34" value="" style="rounded=0;whiteSpace=wrap;html=1;" vertex="1" parent="tTUzf7HsbrFPLLt_ZzBP-33">
          <mxGeometry x="30" y="-10" width="120" height="40" as="geometry" />
        </mxCell>
        <mxCell id="tTUzf7HsbrFPLLt_ZzBP-35" value="8" style="text;html=1;align=center;verticalAlign=middle;resizable=0;points=[];autosize=1;strokeColor=none;fillColor=none;" vertex="1" parent="tTUzf7HsbrFPLLt_ZzBP-33">
          <mxGeometry y="5" width="30" height="30" as="geometry" />
        </mxCell>
        <mxCell id="tTUzf7HsbrFPLLt_ZzBP-36" value="Tamanha = 10" style="text;html=1;align=center;verticalAlign=middle;resizable=0;points=[];autosize=1;strokeColor=none;fillColor=none;" vertex="1" parent="tTUzf7HsbrFPLLt_ZzBP-1">
          <mxGeometry x="30" y="10" width="100" height="30" as="geometry" />
        </mxCell>
        <mxCell id="tTUzf7HsbrFPLLt_ZzBP-37" value="FÃ³rmula hash: %10 (mod)" style="text;html=1;align=center;verticalAlign=middle;resizable=0;points=[];autosize=1;strokeColor=none;fillColor=none;" vertex="1" parent="tTUzf7HsbrFPLLt_ZzBP-1">
          <mxGeometry x="160" y="10" width="160" height="30" as="geometry" />
        </mxCell>
        <mxCell id="tTUzf7HsbrFPLLt_ZzBP-38" value="Inserir 53" style="text;html=1;align=center;verticalAlign=middle;resizable=0;points=[];autosize=1;strokeColor=none;fillColor=none;" vertex="1" parent="tTUzf7HsbrFPLLt_ZzBP-1">
          <mxGeometry x="290" y="110" width="70" height="30" as="geometry" />
        </mxCell>
      </root>
    </mxGraphModel>
  </diagram>
  <diagram name="9" id="5IAUHwO_MnsS7Nh9oc03">
    <mxGraphModel dx="995" dy="592" grid="1" gridSize="10" guides="1" tooltips="1" connect="1" arrows="1" fold="1" page="1" pageScale="1" pageWidth="850" pageHeight="1100" math="0" shadow="0">
      <root>
        <mxCell id="MedfOimf4xwHqT9zWdkq-0" />
        <mxCell id="MedfOimf4xwHqT9zWdkq-1" parent="MedfOimf4xwHqT9zWdkq-0" />
        <mxCell id="MedfOimf4xwHqT9zWdkq-2" value="" style="group" parent="MedfOimf4xwHqT9zWdkq-1" vertex="1" connectable="0">
          <mxGeometry x="90" y="80" width="150" height="40" as="geometry" />
        </mxCell>
        <mxCell id="MedfOimf4xwHqT9zWdkq-3" value="" style="rounded=0;whiteSpace=wrap;html=1;" parent="MedfOimf4xwHqT9zWdkq-2" vertex="1">
          <mxGeometry x="30" width="120" height="40" as="geometry" />
        </mxCell>
        <mxCell id="MedfOimf4xwHqT9zWdkq-4" value="0" style="text;html=1;align=center;verticalAlign=middle;resizable=0;points=[];autosize=1;strokeColor=none;fillColor=none;" parent="MedfOimf4xwHqT9zWdkq-2" vertex="1">
          <mxGeometry y="5" width="30" height="30" as="geometry" />
        </mxCell>
        <mxCell id="MedfOimf4xwHqT9zWdkq-5" value="" style="group" parent="MedfOimf4xwHqT9zWdkq-1" vertex="1" connectable="0">
          <mxGeometry x="90" y="140" width="150" height="40" as="geometry" />
        </mxCell>
        <mxCell id="MedfOimf4xwHqT9zWdkq-6" value="" style="rounded=0;whiteSpace=wrap;html=1;" parent="MedfOimf4xwHqT9zWdkq-5" vertex="1">
          <mxGeometry x="30" width="120" height="40" as="geometry" />
        </mxCell>
        <mxCell id="MedfOimf4xwHqT9zWdkq-7" value="1" style="text;html=1;align=center;verticalAlign=middle;resizable=0;points=[];autosize=1;strokeColor=none;fillColor=none;" parent="MedfOimf4xwHqT9zWdkq-5" vertex="1">
          <mxGeometry y="5" width="30" height="30" as="geometry" />
        </mxCell>
        <mxCell id="MedfOimf4xwHqT9zWdkq-8" value="" style="group" parent="MedfOimf4xwHqT9zWdkq-1" vertex="1" connectable="0">
          <mxGeometry x="90" y="200" width="150" height="40" as="geometry" />
        </mxCell>
        <mxCell id="MedfOimf4xwHqT9zWdkq-9" value="" style="rounded=0;whiteSpace=wrap;html=1;" parent="MedfOimf4xwHqT9zWdkq-8" vertex="1">
          <mxGeometry x="30" width="120" height="40" as="geometry" />
        </mxCell>
        <mxCell id="MedfOimf4xwHqT9zWdkq-10" value="2" style="text;html=1;align=center;verticalAlign=middle;resizable=0;points=[];autosize=1;strokeColor=none;fillColor=none;" parent="MedfOimf4xwHqT9zWdkq-8" vertex="1">
          <mxGeometry y="5" width="30" height="30" as="geometry" />
        </mxCell>
        <mxCell id="MedfOimf4xwHqT9zWdkq-11" value="22" style="text;html=1;align=center;verticalAlign=middle;resizable=0;points=[];autosize=1;strokeColor=none;fillColor=none;" parent="MedfOimf4xwHqT9zWdkq-8" vertex="1">
          <mxGeometry x="70" y="5" width="40" height="30" as="geometry" />
        </mxCell>
        <mxCell id="MedfOimf4xwHqT9zWdkq-12" value="" style="group" parent="MedfOimf4xwHqT9zWdkq-1" vertex="1" connectable="0">
          <mxGeometry x="90" y="320" width="150" height="40" as="geometry" />
        </mxCell>
        <mxCell id="MedfOimf4xwHqT9zWdkq-13" value="" style="rounded=0;whiteSpace=wrap;html=1;" parent="MedfOimf4xwHqT9zWdkq-12" vertex="1">
          <mxGeometry x="30" width="120" height="40" as="geometry" />
        </mxCell>
        <mxCell id="MedfOimf4xwHqT9zWdkq-14" value="4" style="text;html=1;align=center;verticalAlign=middle;resizable=0;points=[];autosize=1;strokeColor=none;fillColor=none;" parent="MedfOimf4xwHqT9zWdkq-12" vertex="1">
          <mxGeometry y="5" width="30" height="30" as="geometry" />
        </mxCell>
        <mxCell id="MedfOimf4xwHqT9zWdkq-15" value="102" style="text;html=1;align=center;verticalAlign=middle;resizable=0;points=[];autosize=1;strokeColor=none;fillColor=none;" parent="MedfOimf4xwHqT9zWdkq-12" vertex="1">
          <mxGeometry x="70" y="5" width="40" height="30" as="geometry" />
        </mxCell>
        <mxCell id="MedfOimf4xwHqT9zWdkq-16" value="" style="group" parent="MedfOimf4xwHqT9zWdkq-1" vertex="1" connectable="0">
          <mxGeometry x="90" y="270" width="150" height="40" as="geometry" />
        </mxCell>
        <mxCell id="MedfOimf4xwHqT9zWdkq-17" value="" style="rounded=0;whiteSpace=wrap;html=1;" parent="MedfOimf4xwHqT9zWdkq-16" vertex="1">
          <mxGeometry x="30" y="-10" width="120" height="40" as="geometry" />
        </mxCell>
        <mxCell id="MedfOimf4xwHqT9zWdkq-18" value="3" style="text;html=1;align=center;verticalAlign=middle;resizable=0;points=[];autosize=1;strokeColor=none;fillColor=none;" parent="MedfOimf4xwHqT9zWdkq-16" vertex="1">
          <mxGeometry y="5" width="30" height="30" as="geometry" />
        </mxCell>
        <mxCell id="MedfOimf4xwHqT9zWdkq-19" value="83" style="text;html=1;align=center;verticalAlign=middle;resizable=0;points=[];autosize=1;strokeColor=none;fillColor=none;" parent="MedfOimf4xwHqT9zWdkq-16" vertex="1">
          <mxGeometry x="70" y="-5" width="40" height="30" as="geometry" />
        </mxCell>
        <mxCell id="MedfOimf4xwHqT9zWdkq-20" value="" style="group" parent="MedfOimf4xwHqT9zWdkq-1" vertex="1" connectable="0">
          <mxGeometry x="90" y="380" width="150" height="40" as="geometry" />
        </mxCell>
        <mxCell id="MedfOimf4xwHqT9zWdkq-21" value="" style="rounded=0;whiteSpace=wrap;html=1;" parent="MedfOimf4xwHqT9zWdkq-20" vertex="1">
          <mxGeometry x="30" width="120" height="40" as="geometry" />
        </mxCell>
        <mxCell id="MedfOimf4xwHqT9zWdkq-22" value="5" style="text;html=1;align=center;verticalAlign=middle;resizable=0;points=[];autosize=1;strokeColor=none;fillColor=none;" parent="MedfOimf4xwHqT9zWdkq-20" vertex="1">
          <mxGeometry y="5" width="30" height="30" as="geometry" />
        </mxCell>
        <mxCell id="MedfOimf4xwHqT9zWdkq-23" value="53" style="text;html=1;align=center;verticalAlign=middle;resizable=0;points=[];autosize=1;strokeColor=none;fillColor=none;" parent="MedfOimf4xwHqT9zWdkq-20" vertex="1">
          <mxGeometry x="70" y="5" width="40" height="30" as="geometry" />
        </mxCell>
        <mxCell id="MedfOimf4xwHqT9zWdkq-24" value="" style="group" parent="MedfOimf4xwHqT9zWdkq-1" vertex="1" connectable="0">
          <mxGeometry x="90" y="440" width="150" height="40" as="geometry" />
        </mxCell>
        <mxCell id="MedfOimf4xwHqT9zWdkq-25" value="" style="rounded=0;whiteSpace=wrap;html=1;" parent="MedfOimf4xwHqT9zWdkq-24" vertex="1">
          <mxGeometry x="30" width="120" height="40" as="geometry" />
        </mxCell>
        <mxCell id="MedfOimf4xwHqT9zWdkq-26" value="6" style="text;html=1;align=center;verticalAlign=middle;resizable=0;points=[];autosize=1;strokeColor=none;fillColor=none;" parent="MedfOimf4xwHqT9zWdkq-24" vertex="1">
          <mxGeometry y="5" width="30" height="30" as="geometry" />
        </mxCell>
        <mxCell id="MedfOimf4xwHqT9zWdkq-27" value="" style="group" parent="MedfOimf4xwHqT9zWdkq-1" vertex="1" connectable="0">
          <mxGeometry x="90" y="500" width="150" height="40" as="geometry" />
        </mxCell>
        <mxCell id="MedfOimf4xwHqT9zWdkq-28" value="" style="rounded=0;whiteSpace=wrap;html=1;" parent="MedfOimf4xwHqT9zWdkq-27" vertex="1">
          <mxGeometry x="30" width="120" height="40" as="geometry" />
        </mxCell>
        <mxCell id="MedfOimf4xwHqT9zWdkq-29" value="7" style="text;html=1;align=center;verticalAlign=middle;resizable=0;points=[];autosize=1;strokeColor=none;fillColor=none;" parent="MedfOimf4xwHqT9zWdkq-27" vertex="1">
          <mxGeometry y="5" width="30" height="30" as="geometry" />
        </mxCell>
        <mxCell id="MedfOimf4xwHqT9zWdkq-30" value="" style="group" parent="MedfOimf4xwHqT9zWdkq-1" vertex="1" connectable="0">
          <mxGeometry x="90" y="620" width="150" height="40" as="geometry" />
        </mxCell>
        <mxCell id="MedfOimf4xwHqT9zWdkq-31" value="" style="rounded=0;whiteSpace=wrap;html=1;" parent="MedfOimf4xwHqT9zWdkq-30" vertex="1">
          <mxGeometry x="30" width="120" height="40" as="geometry" />
        </mxCell>
        <mxCell id="MedfOimf4xwHqT9zWdkq-32" value="9" style="text;html=1;align=center;verticalAlign=middle;resizable=0;points=[];autosize=1;strokeColor=none;fillColor=none;" parent="MedfOimf4xwHqT9zWdkq-30" vertex="1">
          <mxGeometry y="5" width="30" height="30" as="geometry" />
        </mxCell>
        <mxCell id="MedfOimf4xwHqT9zWdkq-33" value="" style="group" parent="MedfOimf4xwHqT9zWdkq-1" vertex="1" connectable="0">
          <mxGeometry x="90" y="570" width="150" height="40" as="geometry" />
        </mxCell>
        <mxCell id="MedfOimf4xwHqT9zWdkq-34" value="" style="rounded=0;whiteSpace=wrap;html=1;" parent="MedfOimf4xwHqT9zWdkq-33" vertex="1">
          <mxGeometry x="30" y="-10" width="120" height="40" as="geometry" />
        </mxCell>
        <mxCell id="MedfOimf4xwHqT9zWdkq-35" value="8" style="text;html=1;align=center;verticalAlign=middle;resizable=0;points=[];autosize=1;strokeColor=none;fillColor=none;" parent="MedfOimf4xwHqT9zWdkq-33" vertex="1">
          <mxGeometry y="5" width="30" height="30" as="geometry" />
        </mxCell>
        <mxCell id="MedfOimf4xwHqT9zWdkq-36" value="Tamanha = 10" style="text;html=1;align=center;verticalAlign=middle;resizable=0;points=[];autosize=1;strokeColor=none;fillColor=none;" parent="MedfOimf4xwHqT9zWdkq-1" vertex="1">
          <mxGeometry x="30" y="10" width="100" height="30" as="geometry" />
        </mxCell>
        <mxCell id="MedfOimf4xwHqT9zWdkq-37" value="FÃ³rmula hash: %10 (mod)" style="text;html=1;align=center;verticalAlign=middle;resizable=0;points=[];autosize=1;strokeColor=none;fillColor=none;" parent="MedfOimf4xwHqT9zWdkq-1" vertex="1">
          <mxGeometry x="160" y="10" width="160" height="30" as="geometry" />
        </mxCell>
        <mxCell id="MedfOimf4xwHqT9zWdkq-38" value="Inserir 2" style="text;html=1;align=center;verticalAlign=middle;resizable=0;points=[];autosize=1;strokeColor=none;fillColor=none;" parent="MedfOimf4xwHqT9zWdkq-1" vertex="1">
          <mxGeometry x="290" y="110" width="70" height="30" as="geometry" />
        </mxCell>
      </root>
    </mxGraphModel>
  </diagram>
  <diagram name="10" id="Cfqbf93hLT3N4Xi3kx_a">
    <mxGraphModel dx="995" dy="592" grid="1" gridSize="10" guides="1" tooltips="1" connect="1" arrows="1" fold="1" page="1" pageScale="1" pageWidth="850" pageHeight="1100" math="0" shadow="0">
      <root>
        <mxCell id="vyHBJlvs5hLrRBLSAwV4-0" />
        <mxCell id="vyHBJlvs5hLrRBLSAwV4-1" parent="vyHBJlvs5hLrRBLSAwV4-0" />
        <mxCell id="vyHBJlvs5hLrRBLSAwV4-2" value="" style="group" parent="vyHBJlvs5hLrRBLSAwV4-1" vertex="1" connectable="0">
          <mxGeometry x="90" y="80" width="150" height="40" as="geometry" />
        </mxCell>
        <mxCell id="vyHBJlvs5hLrRBLSAwV4-3" value="" style="rounded=0;whiteSpace=wrap;html=1;" parent="vyHBJlvs5hLrRBLSAwV4-2" vertex="1">
          <mxGeometry x="30" width="120" height="40" as="geometry" />
        </mxCell>
        <mxCell id="vyHBJlvs5hLrRBLSAwV4-4" value="0" style="text;html=1;align=center;verticalAlign=middle;resizable=0;points=[];autosize=1;strokeColor=none;fillColor=none;" parent="vyHBJlvs5hLrRBLSAwV4-2" vertex="1">
          <mxGeometry y="5" width="30" height="30" as="geometry" />
        </mxCell>
        <mxCell id="vyHBJlvs5hLrRBLSAwV4-5" value="" style="group" parent="vyHBJlvs5hLrRBLSAwV4-1" vertex="1" connectable="0">
          <mxGeometry x="90" y="140" width="150" height="40" as="geometry" />
        </mxCell>
        <mxCell id="vyHBJlvs5hLrRBLSAwV4-6" value="" style="rounded=0;whiteSpace=wrap;html=1;" parent="vyHBJlvs5hLrRBLSAwV4-5" vertex="1">
          <mxGeometry x="30" width="120" height="40" as="geometry" />
        </mxCell>
        <mxCell id="vyHBJlvs5hLrRBLSAwV4-7" value="1" style="text;html=1;align=center;verticalAlign=middle;resizable=0;points=[];autosize=1;strokeColor=none;fillColor=none;" parent="vyHBJlvs5hLrRBLSAwV4-5" vertex="1">
          <mxGeometry y="5" width="30" height="30" as="geometry" />
        </mxCell>
        <mxCell id="vyHBJlvs5hLrRBLSAwV4-8" value="" style="group" parent="vyHBJlvs5hLrRBLSAwV4-1" vertex="1" connectable="0">
          <mxGeometry x="90" y="200" width="150" height="40" as="geometry" />
        </mxCell>
        <mxCell id="vyHBJlvs5hLrRBLSAwV4-9" value="" style="rounded=0;whiteSpace=wrap;html=1;" parent="vyHBJlvs5hLrRBLSAwV4-8" vertex="1">
          <mxGeometry x="30" width="120" height="40" as="geometry" />
        </mxCell>
        <mxCell id="vyHBJlvs5hLrRBLSAwV4-10" value="2" style="text;html=1;align=center;verticalAlign=middle;resizable=0;points=[];autosize=1;strokeColor=none;fillColor=none;" parent="vyHBJlvs5hLrRBLSAwV4-8" vertex="1">
          <mxGeometry y="5" width="30" height="30" as="geometry" />
        </mxCell>
        <mxCell id="vyHBJlvs5hLrRBLSAwV4-11" value="22" style="text;html=1;align=center;verticalAlign=middle;resizable=0;points=[];autosize=1;strokeColor=none;fillColor=none;" parent="vyHBJlvs5hLrRBLSAwV4-8" vertex="1">
          <mxGeometry x="70" y="5" width="40" height="30" as="geometry" />
        </mxCell>
        <mxCell id="vyHBJlvs5hLrRBLSAwV4-12" value="" style="group" parent="vyHBJlvs5hLrRBLSAwV4-1" vertex="1" connectable="0">
          <mxGeometry x="90" y="320" width="150" height="40" as="geometry" />
        </mxCell>
        <mxCell id="vyHBJlvs5hLrRBLSAwV4-13" value="" style="rounded=0;whiteSpace=wrap;html=1;" parent="vyHBJlvs5hLrRBLSAwV4-12" vertex="1">
          <mxGeometry x="30" width="120" height="40" as="geometry" />
        </mxCell>
        <mxCell id="vyHBJlvs5hLrRBLSAwV4-14" value="4" style="text;html=1;align=center;verticalAlign=middle;resizable=0;points=[];autosize=1;strokeColor=none;fillColor=none;" parent="vyHBJlvs5hLrRBLSAwV4-12" vertex="1">
          <mxGeometry y="5" width="30" height="30" as="geometry" />
        </mxCell>
        <mxCell id="vyHBJlvs5hLrRBLSAwV4-15" value="102" style="text;html=1;align=center;verticalAlign=middle;resizable=0;points=[];autosize=1;strokeColor=none;fillColor=none;" parent="vyHBJlvs5hLrRBLSAwV4-12" vertex="1">
          <mxGeometry x="70" y="5" width="40" height="30" as="geometry" />
        </mxCell>
        <mxCell id="vyHBJlvs5hLrRBLSAwV4-16" value="" style="group" parent="vyHBJlvs5hLrRBLSAwV4-1" vertex="1" connectable="0">
          <mxGeometry x="90" y="270" width="150" height="40" as="geometry" />
        </mxCell>
        <mxCell id="vyHBJlvs5hLrRBLSAwV4-17" value="" style="rounded=0;whiteSpace=wrap;html=1;" parent="vyHBJlvs5hLrRBLSAwV4-16" vertex="1">
          <mxGeometry x="30" y="-10" width="120" height="40" as="geometry" />
        </mxCell>
        <mxCell id="vyHBJlvs5hLrRBLSAwV4-18" value="3" style="text;html=1;align=center;verticalAlign=middle;resizable=0;points=[];autosize=1;strokeColor=none;fillColor=none;" parent="vyHBJlvs5hLrRBLSAwV4-16" vertex="1">
          <mxGeometry y="5" width="30" height="30" as="geometry" />
        </mxCell>
        <mxCell id="vyHBJlvs5hLrRBLSAwV4-19" value="83" style="text;html=1;align=center;verticalAlign=middle;resizable=0;points=[];autosize=1;strokeColor=none;fillColor=none;" parent="vyHBJlvs5hLrRBLSAwV4-16" vertex="1">
          <mxGeometry x="70" y="-5" width="40" height="30" as="geometry" />
        </mxCell>
        <mxCell id="vyHBJlvs5hLrRBLSAwV4-20" value="" style="group" parent="vyHBJlvs5hLrRBLSAwV4-1" vertex="1" connectable="0">
          <mxGeometry x="90" y="380" width="150" height="40" as="geometry" />
        </mxCell>
        <mxCell id="vyHBJlvs5hLrRBLSAwV4-21" value="" style="rounded=0;whiteSpace=wrap;html=1;" parent="vyHBJlvs5hLrRBLSAwV4-20" vertex="1">
          <mxGeometry x="30" width="120" height="40" as="geometry" />
        </mxCell>
        <mxCell id="vyHBJlvs5hLrRBLSAwV4-22" value="5" style="text;html=1;align=center;verticalAlign=middle;resizable=0;points=[];autosize=1;strokeColor=none;fillColor=none;" parent="vyHBJlvs5hLrRBLSAwV4-20" vertex="1">
          <mxGeometry y="5" width="30" height="30" as="geometry" />
        </mxCell>
        <mxCell id="vyHBJlvs5hLrRBLSAwV4-23" value="53" style="text;html=1;align=center;verticalAlign=middle;resizable=0;points=[];autosize=1;strokeColor=none;fillColor=none;" parent="vyHBJlvs5hLrRBLSAwV4-20" vertex="1">
          <mxGeometry x="70" y="5" width="40" height="30" as="geometry" />
        </mxCell>
        <mxCell id="vyHBJlvs5hLrRBLSAwV4-24" value="" style="group" parent="vyHBJlvs5hLrRBLSAwV4-1" vertex="1" connectable="0">
          <mxGeometry x="90" y="440" width="150" height="40" as="geometry" />
        </mxCell>
        <mxCell id="vyHBJlvs5hLrRBLSAwV4-25" value="" style="rounded=0;whiteSpace=wrap;html=1;" parent="vyHBJlvs5hLrRBLSAwV4-24" vertex="1">
          <mxGeometry x="30" width="120" height="40" as="geometry" />
        </mxCell>
        <mxCell id="vyHBJlvs5hLrRBLSAwV4-26" value="6" style="text;html=1;align=center;verticalAlign=middle;resizable=0;points=[];autosize=1;strokeColor=none;fillColor=none;" parent="vyHBJlvs5hLrRBLSAwV4-24" vertex="1">
          <mxGeometry y="5" width="30" height="30" as="geometry" />
        </mxCell>
        <mxCell id="MCHeiTgrnk49b3CdvoGx-0" value="2" style="text;html=1;align=center;verticalAlign=middle;resizable=0;points=[];autosize=1;strokeColor=none;fillColor=none;" parent="vyHBJlvs5hLrRBLSAwV4-24" vertex="1">
          <mxGeometry x="70" y="5" width="30" height="30" as="geometry" />
        </mxCell>
        <mxCell id="vyHBJlvs5hLrRBLSAwV4-27" value="" style="group" parent="vyHBJlvs5hLrRBLSAwV4-1" vertex="1" connectable="0">
          <mxGeometry x="90" y="500" width="150" height="40" as="geometry" />
        </mxCell>
        <mxCell id="vyHBJlvs5hLrRBLSAwV4-28" value="" style="rounded=0;whiteSpace=wrap;html=1;" parent="vyHBJlvs5hLrRBLSAwV4-27" vertex="1">
          <mxGeometry x="30" width="120" height="40" as="geometry" />
        </mxCell>
        <mxCell id="vyHBJlvs5hLrRBLSAwV4-29" value="7" style="text;html=1;align=center;verticalAlign=middle;resizable=0;points=[];autosize=1;strokeColor=none;fillColor=none;" parent="vyHBJlvs5hLrRBLSAwV4-27" vertex="1">
          <mxGeometry y="5" width="30" height="30" as="geometry" />
        </mxCell>
        <mxCell id="vyHBJlvs5hLrRBLSAwV4-30" value="" style="group" parent="vyHBJlvs5hLrRBLSAwV4-1" vertex="1" connectable="0">
          <mxGeometry x="90" y="620" width="150" height="40" as="geometry" />
        </mxCell>
        <mxCell id="vyHBJlvs5hLrRBLSAwV4-31" value="" style="rounded=0;whiteSpace=wrap;html=1;" parent="vyHBJlvs5hLrRBLSAwV4-30" vertex="1">
          <mxGeometry x="30" width="120" height="40" as="geometry" />
        </mxCell>
        <mxCell id="vyHBJlvs5hLrRBLSAwV4-32" value="9" style="text;html=1;align=center;verticalAlign=middle;resizable=0;points=[];autosize=1;strokeColor=none;fillColor=none;" parent="vyHBJlvs5hLrRBLSAwV4-30" vertex="1">
          <mxGeometry y="5" width="30" height="30" as="geometry" />
        </mxCell>
        <mxCell id="vyHBJlvs5hLrRBLSAwV4-33" value="" style="group" parent="vyHBJlvs5hLrRBLSAwV4-1" vertex="1" connectable="0">
          <mxGeometry x="90" y="570" width="150" height="40" as="geometry" />
        </mxCell>
        <mxCell id="vyHBJlvs5hLrRBLSAwV4-34" value="" style="rounded=0;whiteSpace=wrap;html=1;" parent="vyHBJlvs5hLrRBLSAwV4-33" vertex="1">
          <mxGeometry x="30" y="-10" width="120" height="40" as="geometry" />
        </mxCell>
        <mxCell id="vyHBJlvs5hLrRBLSAwV4-35" value="8" style="text;html=1;align=center;verticalAlign=middle;resizable=0;points=[];autosize=1;strokeColor=none;fillColor=none;" parent="vyHBJlvs5hLrRBLSAwV4-33" vertex="1">
          <mxGeometry y="5" width="30" height="30" as="geometry" />
        </mxCell>
        <mxCell id="vyHBJlvs5hLrRBLSAwV4-36" value="Tamanha = 10" style="text;html=1;align=center;verticalAlign=middle;resizable=0;points=[];autosize=1;strokeColor=none;fillColor=none;" parent="vyHBJlvs5hLrRBLSAwV4-1" vertex="1">
          <mxGeometry x="30" y="10" width="100" height="30" as="geometry" />
        </mxCell>
        <mxCell id="vyHBJlvs5hLrRBLSAwV4-37" value="FÃ³rmula hash: %10 (mod)" style="text;html=1;align=center;verticalAlign=middle;resizable=0;points=[];autosize=1;strokeColor=none;fillColor=none;" parent="vyHBJlvs5hLrRBLSAwV4-1" vertex="1">
          <mxGeometry x="160" y="10" width="160" height="30" as="geometry" />
        </mxCell>
        <mxCell id="vyHBJlvs5hLrRBLSAwV4-38" value="Inserir 2" style="text;html=1;align=center;verticalAlign=middle;resizable=0;points=[];autosize=1;strokeColor=none;fillColor=none;" parent="vyHBJlvs5hLrRBLSAwV4-1" vertex="1">
          <mxGeometry x="290" y="110" width="70" height="30" as="geometry" />
        </mxCell>
      </root>
    </mxGraphModel>
  </diagram>
  <diagram name="11" id="sxb2-Z_trtnFQni2L4-8">
    <mxGraphModel dx="995" dy="592" grid="1" gridSize="10" guides="1" tooltips="1" connect="1" arrows="1" fold="1" page="1" pageScale="1" pageWidth="850" pageHeight="1100" math="0" shadow="0">
      <root>
        <mxCell id="IacalHwgmUixxDMSoHnt-0" />
        <mxCell id="IacalHwgmUixxDMSoHnt-1" parent="IacalHwgmUixxDMSoHnt-0" />
        <mxCell id="IacalHwgmUixxDMSoHnt-2" value="" style="group" parent="IacalHwgmUixxDMSoHnt-1" vertex="1" connectable="0">
          <mxGeometry x="90" y="80" width="150" height="40" as="geometry" />
        </mxCell>
        <mxCell id="IacalHwgmUixxDMSoHnt-3" value="" style="rounded=0;whiteSpace=wrap;html=1;" parent="IacalHwgmUixxDMSoHnt-2" vertex="1">
          <mxGeometry x="30" width="120" height="40" as="geometry" />
        </mxCell>
        <mxCell id="IacalHwgmUixxDMSoHnt-4" value="0" style="text;html=1;align=center;verticalAlign=middle;resizable=0;points=[];autosize=1;strokeColor=none;fillColor=none;" parent="IacalHwgmUixxDMSoHnt-2" vertex="1">
          <mxGeometry y="5" width="30" height="30" as="geometry" />
        </mxCell>
        <mxCell id="IacalHwgmUixxDMSoHnt-5" value="" style="group" parent="IacalHwgmUixxDMSoHnt-1" vertex="1" connectable="0">
          <mxGeometry x="90" y="140" width="150" height="40" as="geometry" />
        </mxCell>
        <mxCell id="IacalHwgmUixxDMSoHnt-6" value="" style="rounded=0;whiteSpace=wrap;html=1;" parent="IacalHwgmUixxDMSoHnt-5" vertex="1">
          <mxGeometry x="30" width="120" height="40" as="geometry" />
        </mxCell>
        <mxCell id="IacalHwgmUixxDMSoHnt-7" value="1" style="text;html=1;align=center;verticalAlign=middle;resizable=0;points=[];autosize=1;strokeColor=none;fillColor=none;" parent="IacalHwgmUixxDMSoHnt-5" vertex="1">
          <mxGeometry y="5" width="30" height="30" as="geometry" />
        </mxCell>
        <mxCell id="IacalHwgmUixxDMSoHnt-8" value="" style="group" parent="IacalHwgmUixxDMSoHnt-1" vertex="1" connectable="0">
          <mxGeometry x="90" y="200" width="150" height="40" as="geometry" />
        </mxCell>
        <mxCell id="IacalHwgmUixxDMSoHnt-9" value="" style="rounded=0;whiteSpace=wrap;html=1;" parent="IacalHwgmUixxDMSoHnt-8" vertex="1">
          <mxGeometry x="30" width="120" height="40" as="geometry" />
        </mxCell>
        <mxCell id="IacalHwgmUixxDMSoHnt-10" value="2" style="text;html=1;align=center;verticalAlign=middle;resizable=0;points=[];autosize=1;strokeColor=none;fillColor=none;" parent="IacalHwgmUixxDMSoHnt-8" vertex="1">
          <mxGeometry y="5" width="30" height="30" as="geometry" />
        </mxCell>
        <mxCell id="IacalHwgmUixxDMSoHnt-11" value="22" style="text;html=1;align=center;verticalAlign=middle;resizable=0;points=[];autosize=1;strokeColor=none;fillColor=none;" parent="IacalHwgmUixxDMSoHnt-8" vertex="1">
          <mxGeometry x="70" y="5" width="40" height="30" as="geometry" />
        </mxCell>
        <mxCell id="IacalHwgmUixxDMSoHnt-12" value="" style="group" parent="IacalHwgmUixxDMSoHnt-1" vertex="1" connectable="0">
          <mxGeometry x="90" y="320" width="150" height="40" as="geometry" />
        </mxCell>
        <mxCell id="IacalHwgmUixxDMSoHnt-13" value="" style="rounded=0;whiteSpace=wrap;html=1;" parent="IacalHwgmUixxDMSoHnt-12" vertex="1">
          <mxGeometry x="30" width="120" height="40" as="geometry" />
        </mxCell>
        <mxCell id="IacalHwgmUixxDMSoHnt-14" value="4" style="text;html=1;align=center;verticalAlign=middle;resizable=0;points=[];autosize=1;strokeColor=none;fillColor=none;" parent="IacalHwgmUixxDMSoHnt-12" vertex="1">
          <mxGeometry y="5" width="30" height="30" as="geometry" />
        </mxCell>
        <mxCell id="IacalHwgmUixxDMSoHnt-15" value="102" style="text;html=1;align=center;verticalAlign=middle;resizable=0;points=[];autosize=1;strokeColor=none;fillColor=none;" parent="IacalHwgmUixxDMSoHnt-12" vertex="1">
          <mxGeometry x="70" y="5" width="40" height="30" as="geometry" />
        </mxCell>
        <mxCell id="IacalHwgmUixxDMSoHnt-16" value="" style="group" parent="IacalHwgmUixxDMSoHnt-1" vertex="1" connectable="0">
          <mxGeometry x="90" y="270" width="150" height="40" as="geometry" />
        </mxCell>
        <mxCell id="IacalHwgmUixxDMSoHnt-17" value="" style="rounded=0;whiteSpace=wrap;html=1;" parent="IacalHwgmUixxDMSoHnt-16" vertex="1">
          <mxGeometry x="30" y="-10" width="120" height="40" as="geometry" />
        </mxCell>
        <mxCell id="IacalHwgmUixxDMSoHnt-18" value="3" style="text;html=1;align=center;verticalAlign=middle;resizable=0;points=[];autosize=1;strokeColor=none;fillColor=none;" parent="IacalHwgmUixxDMSoHnt-16" vertex="1">
          <mxGeometry y="5" width="30" height="30" as="geometry" />
        </mxCell>
        <mxCell id="IacalHwgmUixxDMSoHnt-19" value="83" style="text;html=1;align=center;verticalAlign=middle;resizable=0;points=[];autosize=1;strokeColor=none;fillColor=none;" parent="IacalHwgmUixxDMSoHnt-16" vertex="1">
          <mxGeometry x="70" y="-5" width="40" height="30" as="geometry" />
        </mxCell>
        <mxCell id="IacalHwgmUixxDMSoHnt-20" value="" style="group" parent="IacalHwgmUixxDMSoHnt-1" vertex="1" connectable="0">
          <mxGeometry x="90" y="380" width="150" height="40" as="geometry" />
        </mxCell>
        <mxCell id="IacalHwgmUixxDMSoHnt-21" value="" style="rounded=0;whiteSpace=wrap;html=1;" parent="IacalHwgmUixxDMSoHnt-20" vertex="1">
          <mxGeometry x="30" width="120" height="40" as="geometry" />
        </mxCell>
        <mxCell id="IacalHwgmUixxDMSoHnt-22" value="5" style="text;html=1;align=center;verticalAlign=middle;resizable=0;points=[];autosize=1;strokeColor=none;fillColor=none;" parent="IacalHwgmUixxDMSoHnt-20" vertex="1">
          <mxGeometry y="5" width="30" height="30" as="geometry" />
        </mxCell>
        <mxCell id="IacalHwgmUixxDMSoHnt-23" value="53" style="text;html=1;align=center;verticalAlign=middle;resizable=0;points=[];autosize=1;strokeColor=none;fillColor=none;" parent="IacalHwgmUixxDMSoHnt-20" vertex="1">
          <mxGeometry x="70" y="5" width="40" height="30" as="geometry" />
        </mxCell>
        <mxCell id="IacalHwgmUixxDMSoHnt-24" value="" style="group" parent="IacalHwgmUixxDMSoHnt-1" vertex="1" connectable="0">
          <mxGeometry x="90" y="440" width="150" height="40" as="geometry" />
        </mxCell>
        <mxCell id="IacalHwgmUixxDMSoHnt-25" value="" style="rounded=0;whiteSpace=wrap;html=1;" parent="IacalHwgmUixxDMSoHnt-24" vertex="1">
          <mxGeometry x="30" width="120" height="40" as="geometry" />
        </mxCell>
        <mxCell id="IacalHwgmUixxDMSoHnt-26" value="6" style="text;html=1;align=center;verticalAlign=middle;resizable=0;points=[];autosize=1;strokeColor=none;fillColor=none;" parent="IacalHwgmUixxDMSoHnt-24" vertex="1">
          <mxGeometry y="5" width="30" height="30" as="geometry" />
        </mxCell>
        <mxCell id="IacalHwgmUixxDMSoHnt-27" value="2" style="text;html=1;align=center;verticalAlign=middle;resizable=0;points=[];autosize=1;strokeColor=none;fillColor=none;" parent="IacalHwgmUixxDMSoHnt-24" vertex="1">
          <mxGeometry x="70" y="5" width="30" height="30" as="geometry" />
        </mxCell>
        <mxCell id="IacalHwgmUixxDMSoHnt-28" value="" style="group" parent="IacalHwgmUixxDMSoHnt-1" vertex="1" connectable="0">
          <mxGeometry x="90" y="500" width="150" height="40" as="geometry" />
        </mxCell>
        <mxCell id="IacalHwgmUixxDMSoHnt-29" value="" style="rounded=0;whiteSpace=wrap;html=1;" parent="IacalHwgmUixxDMSoHnt-28" vertex="1">
          <mxGeometry x="30" width="120" height="40" as="geometry" />
        </mxCell>
        <mxCell id="IacalHwgmUixxDMSoHnt-30" value="7" style="text;html=1;align=center;verticalAlign=middle;resizable=0;points=[];autosize=1;strokeColor=none;fillColor=none;" parent="IacalHwgmUixxDMSoHnt-28" vertex="1">
          <mxGeometry y="5" width="30" height="30" as="geometry" />
        </mxCell>
        <mxCell id="IacalHwgmUixxDMSoHnt-31" value="" style="group" parent="IacalHwgmUixxDMSoHnt-1" vertex="1" connectable="0">
          <mxGeometry x="90" y="620" width="150" height="40" as="geometry" />
        </mxCell>
        <mxCell id="IacalHwgmUixxDMSoHnt-32" value="" style="rounded=0;whiteSpace=wrap;html=1;" parent="IacalHwgmUixxDMSoHnt-31" vertex="1">
          <mxGeometry x="30" width="120" height="40" as="geometry" />
        </mxCell>
        <mxCell id="IacalHwgmUixxDMSoHnt-33" value="9" style="text;html=1;align=center;verticalAlign=middle;resizable=0;points=[];autosize=1;strokeColor=none;fillColor=none;" parent="IacalHwgmUixxDMSoHnt-31" vertex="1">
          <mxGeometry y="5" width="30" height="30" as="geometry" />
        </mxCell>
        <mxCell id="IacalHwgmUixxDMSoHnt-34" value="" style="group" parent="IacalHwgmUixxDMSoHnt-1" vertex="1" connectable="0">
          <mxGeometry x="90" y="570" width="150" height="40" as="geometry" />
        </mxCell>
        <mxCell id="IacalHwgmUixxDMSoHnt-35" value="" style="rounded=0;whiteSpace=wrap;html=1;" parent="IacalHwgmUixxDMSoHnt-34" vertex="1">
          <mxGeometry x="30" y="-10" width="120" height="40" as="geometry" />
        </mxCell>
        <mxCell id="IacalHwgmUixxDMSoHnt-36" value="8" style="text;html=1;align=center;verticalAlign=middle;resizable=0;points=[];autosize=1;strokeColor=none;fillColor=none;" parent="IacalHwgmUixxDMSoHnt-34" vertex="1">
          <mxGeometry y="5" width="30" height="30" as="geometry" />
        </mxCell>
        <mxCell id="IacalHwgmUixxDMSoHnt-37" value="Tamanha = 10" style="text;html=1;align=center;verticalAlign=middle;resizable=0;points=[];autosize=1;strokeColor=none;fillColor=none;" parent="IacalHwgmUixxDMSoHnt-1" vertex="1">
          <mxGeometry x="30" y="10" width="100" height="30" as="geometry" />
        </mxCell>
        <mxCell id="IacalHwgmUixxDMSoHnt-38" value="FÃ³rmula hash: %10 (mod)" style="text;html=1;align=center;verticalAlign=middle;resizable=0;points=[];autosize=1;strokeColor=none;fillColor=none;" parent="IacalHwgmUixxDMSoHnt-1" vertex="1">
          <mxGeometry x="160" y="10" width="160" height="30" as="geometry" />
        </mxCell>
        <mxCell id="QeBlGPresEJh4TVVDlTX-0" value="remover 22" style="text;html=1;align=center;verticalAlign=middle;resizable=0;points=[];autosize=1;strokeColor=none;fillColor=none;" parent="IacalHwgmUixxDMSoHnt-1" vertex="1">
          <mxGeometry x="280" y="128" width="80" height="30" as="geometry" />
        </mxCell>
      </root>
    </mxGraphModel>
  </diagram>
  <diagram name="12" id="t_o25-3otxXtEqZsngTw">
    <mxGraphModel dx="995" dy="592" grid="1" gridSize="10" guides="1" tooltips="1" connect="1" arrows="1" fold="1" page="1" pageScale="1" pageWidth="850" pageHeight="1100" math="0" shadow="0">
      <root>
        <mxCell id="HtXLQkOF01YKfNZACtuj-0" />
        <mxCell id="HtXLQkOF01YKfNZACtuj-1" parent="HtXLQkOF01YKfNZACtuj-0" />
        <mxCell id="HtXLQkOF01YKfNZACtuj-2" value="" style="group" parent="HtXLQkOF01YKfNZACtuj-1" vertex="1" connectable="0">
          <mxGeometry x="90" y="80" width="150" height="40" as="geometry" />
        </mxCell>
        <mxCell id="HtXLQkOF01YKfNZACtuj-3" value="" style="rounded=0;whiteSpace=wrap;html=1;" parent="HtXLQkOF01YKfNZACtuj-2" vertex="1">
          <mxGeometry x="30" width="120" height="40" as="geometry" />
        </mxCell>
        <mxCell id="HtXLQkOF01YKfNZACtuj-4" value="0" style="text;html=1;align=center;verticalAlign=middle;resizable=0;points=[];autosize=1;strokeColor=none;fillColor=none;" parent="HtXLQkOF01YKfNZACtuj-2" vertex="1">
          <mxGeometry y="5" width="30" height="30" as="geometry" />
        </mxCell>
        <mxCell id="HtXLQkOF01YKfNZACtuj-5" value="" style="group" parent="HtXLQkOF01YKfNZACtuj-1" vertex="1" connectable="0">
          <mxGeometry x="90" y="140" width="150" height="40" as="geometry" />
        </mxCell>
        <mxCell id="HtXLQkOF01YKfNZACtuj-6" value="" style="rounded=0;whiteSpace=wrap;html=1;" parent="HtXLQkOF01YKfNZACtuj-5" vertex="1">
          <mxGeometry x="30" width="120" height="40" as="geometry" />
        </mxCell>
        <mxCell id="HtXLQkOF01YKfNZACtuj-7" value="1" style="text;html=1;align=center;verticalAlign=middle;resizable=0;points=[];autosize=1;strokeColor=none;fillColor=none;" parent="HtXLQkOF01YKfNZACtuj-5" vertex="1">
          <mxGeometry y="5" width="30" height="30" as="geometry" />
        </mxCell>
        <mxCell id="HtXLQkOF01YKfNZACtuj-8" value="" style="group" parent="HtXLQkOF01YKfNZACtuj-1" vertex="1" connectable="0">
          <mxGeometry x="90" y="200" width="150" height="40" as="geometry" />
        </mxCell>
        <mxCell id="HtXLQkOF01YKfNZACtuj-9" value="" style="rounded=0;whiteSpace=wrap;html=1;" parent="HtXLQkOF01YKfNZACtuj-8" vertex="1">
          <mxGeometry x="30" width="120" height="40" as="geometry" />
        </mxCell>
        <mxCell id="HtXLQkOF01YKfNZACtuj-10" value="2" style="text;html=1;align=center;verticalAlign=middle;resizable=0;points=[];autosize=1;strokeColor=none;fillColor=none;" parent="HtXLQkOF01YKfNZACtuj-8" vertex="1">
          <mxGeometry y="5" width="30" height="30" as="geometry" />
        </mxCell>
        <mxCell id="HtXLQkOF01YKfNZACtuj-12" value="" style="group" parent="HtXLQkOF01YKfNZACtuj-1" vertex="1" connectable="0">
          <mxGeometry x="90" y="320" width="150" height="40" as="geometry" />
        </mxCell>
        <mxCell id="HtXLQkOF01YKfNZACtuj-13" value="" style="rounded=0;whiteSpace=wrap;html=1;" parent="HtXLQkOF01YKfNZACtuj-12" vertex="1">
          <mxGeometry x="30" width="120" height="40" as="geometry" />
        </mxCell>
        <mxCell id="HtXLQkOF01YKfNZACtuj-14" value="4" style="text;html=1;align=center;verticalAlign=middle;resizable=0;points=[];autosize=1;strokeColor=none;fillColor=none;" parent="HtXLQkOF01YKfNZACtuj-12" vertex="1">
          <mxGeometry y="5" width="30" height="30" as="geometry" />
        </mxCell>
        <mxCell id="HtXLQkOF01YKfNZACtuj-15" value="102" style="text;html=1;align=center;verticalAlign=middle;resizable=0;points=[];autosize=1;strokeColor=none;fillColor=none;" parent="HtXLQkOF01YKfNZACtuj-12" vertex="1">
          <mxGeometry x="70" y="5" width="40" height="30" as="geometry" />
        </mxCell>
        <mxCell id="HtXLQkOF01YKfNZACtuj-16" value="" style="group" parent="HtXLQkOF01YKfNZACtuj-1" vertex="1" connectable="0">
          <mxGeometry x="90" y="270" width="150" height="40" as="geometry" />
        </mxCell>
        <mxCell id="HtXLQkOF01YKfNZACtuj-17" value="" style="rounded=0;whiteSpace=wrap;html=1;" parent="HtXLQkOF01YKfNZACtuj-16" vertex="1">
          <mxGeometry x="30" y="-10" width="120" height="40" as="geometry" />
        </mxCell>
        <mxCell id="HtXLQkOF01YKfNZACtuj-18" value="3" style="text;html=1;align=center;verticalAlign=middle;resizable=0;points=[];autosize=1;strokeColor=none;fillColor=none;" parent="HtXLQkOF01YKfNZACtuj-16" vertex="1">
          <mxGeometry y="5" width="30" height="30" as="geometry" />
        </mxCell>
        <mxCell id="HtXLQkOF01YKfNZACtuj-19" value="83" style="text;html=1;align=center;verticalAlign=middle;resizable=0;points=[];autosize=1;strokeColor=none;fillColor=none;" parent="HtXLQkOF01YKfNZACtuj-16" vertex="1">
          <mxGeometry x="70" y="-5" width="40" height="30" as="geometry" />
        </mxCell>
        <mxCell id="HtXLQkOF01YKfNZACtuj-20" value="" style="group" parent="HtXLQkOF01YKfNZACtuj-1" vertex="1" connectable="0">
          <mxGeometry x="90" y="380" width="150" height="40" as="geometry" />
        </mxCell>
        <mxCell id="HtXLQkOF01YKfNZACtuj-21" value="" style="rounded=0;whiteSpace=wrap;html=1;" parent="HtXLQkOF01YKfNZACtuj-20" vertex="1">
          <mxGeometry x="30" width="120" height="40" as="geometry" />
        </mxCell>
        <mxCell id="HtXLQkOF01YKfNZACtuj-22" value="5" style="text;html=1;align=center;verticalAlign=middle;resizable=0;points=[];autosize=1;strokeColor=none;fillColor=none;" parent="HtXLQkOF01YKfNZACtuj-20" vertex="1">
          <mxGeometry y="5" width="30" height="30" as="geometry" />
        </mxCell>
        <mxCell id="HtXLQkOF01YKfNZACtuj-23" value="53" style="text;html=1;align=center;verticalAlign=middle;resizable=0;points=[];autosize=1;strokeColor=none;fillColor=none;" parent="HtXLQkOF01YKfNZACtuj-20" vertex="1">
          <mxGeometry x="70" y="5" width="40" height="30" as="geometry" />
        </mxCell>
        <mxCell id="HtXLQkOF01YKfNZACtuj-24" value="" style="group" parent="HtXLQkOF01YKfNZACtuj-1" vertex="1" connectable="0">
          <mxGeometry x="90" y="440" width="150" height="40" as="geometry" />
        </mxCell>
        <mxCell id="HtXLQkOF01YKfNZACtuj-25" value="" style="rounded=0;whiteSpace=wrap;html=1;" parent="HtXLQkOF01YKfNZACtuj-24" vertex="1">
          <mxGeometry x="30" width="120" height="40" as="geometry" />
        </mxCell>
        <mxCell id="HtXLQkOF01YKfNZACtuj-26" value="6" style="text;html=1;align=center;verticalAlign=middle;resizable=0;points=[];autosize=1;strokeColor=none;fillColor=none;" parent="HtXLQkOF01YKfNZACtuj-24" vertex="1">
          <mxGeometry y="5" width="30" height="30" as="geometry" />
        </mxCell>
        <mxCell id="HtXLQkOF01YKfNZACtuj-27" value="2" style="text;html=1;align=center;verticalAlign=middle;resizable=0;points=[];autosize=1;strokeColor=none;fillColor=none;" parent="HtXLQkOF01YKfNZACtuj-24" vertex="1">
          <mxGeometry x="70" y="5" width="30" height="30" as="geometry" />
        </mxCell>
        <mxCell id="HtXLQkOF01YKfNZACtuj-28" value="" style="group" parent="HtXLQkOF01YKfNZACtuj-1" vertex="1" connectable="0">
          <mxGeometry x="90" y="500" width="150" height="40" as="geometry" />
        </mxCell>
        <mxCell id="HtXLQkOF01YKfNZACtuj-29" value="" style="rounded=0;whiteSpace=wrap;html=1;" parent="HtXLQkOF01YKfNZACtuj-28" vertex="1">
          <mxGeometry x="30" width="120" height="40" as="geometry" />
        </mxCell>
        <mxCell id="HtXLQkOF01YKfNZACtuj-30" value="7" style="text;html=1;align=center;verticalAlign=middle;resizable=0;points=[];autosize=1;strokeColor=none;fillColor=none;" parent="HtXLQkOF01YKfNZACtuj-28" vertex="1">
          <mxGeometry y="5" width="30" height="30" as="geometry" />
        </mxCell>
        <mxCell id="HtXLQkOF01YKfNZACtuj-31" value="" style="group" parent="HtXLQkOF01YKfNZACtuj-1" vertex="1" connectable="0">
          <mxGeometry x="90" y="620" width="150" height="40" as="geometry" />
        </mxCell>
        <mxCell id="HtXLQkOF01YKfNZACtuj-32" value="" style="rounded=0;whiteSpace=wrap;html=1;" parent="HtXLQkOF01YKfNZACtuj-31" vertex="1">
          <mxGeometry x="30" width="120" height="40" as="geometry" />
        </mxCell>
        <mxCell id="HtXLQkOF01YKfNZACtuj-33" value="9" style="text;html=1;align=center;verticalAlign=middle;resizable=0;points=[];autosize=1;strokeColor=none;fillColor=none;" parent="HtXLQkOF01YKfNZACtuj-31" vertex="1">
          <mxGeometry y="5" width="30" height="30" as="geometry" />
        </mxCell>
        <mxCell id="HtXLQkOF01YKfNZACtuj-34" value="" style="group" parent="HtXLQkOF01YKfNZACtuj-1" vertex="1" connectable="0">
          <mxGeometry x="90" y="570" width="150" height="40" as="geometry" />
        </mxCell>
        <mxCell id="HtXLQkOF01YKfNZACtuj-35" value="" style="rounded=0;whiteSpace=wrap;html=1;" parent="HtXLQkOF01YKfNZACtuj-34" vertex="1">
          <mxGeometry x="30" y="-10" width="120" height="40" as="geometry" />
        </mxCell>
        <mxCell id="HtXLQkOF01YKfNZACtuj-36" value="8" style="text;html=1;align=center;verticalAlign=middle;resizable=0;points=[];autosize=1;strokeColor=none;fillColor=none;" parent="HtXLQkOF01YKfNZACtuj-34" vertex="1">
          <mxGeometry y="5" width="30" height="30" as="geometry" />
        </mxCell>
        <mxCell id="HtXLQkOF01YKfNZACtuj-37" value="Tamanha = 10" style="text;html=1;align=center;verticalAlign=middle;resizable=0;points=[];autosize=1;strokeColor=none;fillColor=none;" parent="HtXLQkOF01YKfNZACtuj-1" vertex="1">
          <mxGeometry x="30" y="10" width="100" height="30" as="geometry" />
        </mxCell>
        <mxCell id="HtXLQkOF01YKfNZACtuj-38" value="FÃ³rmula hash: %10 (mod)" style="text;html=1;align=center;verticalAlign=middle;resizable=0;points=[];autosize=1;strokeColor=none;fillColor=none;" parent="HtXLQkOF01YKfNZACtuj-1" vertex="1">
          <mxGeometry x="160" y="10" width="160" height="30" as="geometry" />
        </mxCell>
        <mxCell id="HtXLQkOF01YKfNZACtuj-39" value="remover 22" style="text;html=1;align=center;verticalAlign=middle;resizable=0;points=[];autosize=1;strokeColor=none;fillColor=none;" parent="HtXLQkOF01YKfNZACtuj-1" vertex="1">
          <mxGeometry x="280" y="128" width="80" height="30" as="geometry" />
        </mxCell>
      </root>
    </mxGraphModel>
  </diagram>
  <diagram name="13" id="9yFIc881HHa89jdO750-">
    <mxGraphModel dx="995" dy="592" grid="1" gridSize="10" guides="1" tooltips="1" connect="1" arrows="1" fold="1" page="1" pageScale="1" pageWidth="850" pageHeight="1100" math="0" shadow="0">
      <root>
        <mxCell id="50xzQvIT4jbEVRJ5lRhD-0" />
        <mxCell id="50xzQvIT4jbEVRJ5lRhD-1" parent="50xzQvIT4jbEVRJ5lRhD-0" />
        <mxCell id="50xzQvIT4jbEVRJ5lRhD-2" value="" style="group" parent="50xzQvIT4jbEVRJ5lRhD-1" vertex="1" connectable="0">
          <mxGeometry x="90" y="80" width="150" height="40" as="geometry" />
        </mxCell>
        <mxCell id="50xzQvIT4jbEVRJ5lRhD-3" value="" style="rounded=0;whiteSpace=wrap;html=1;" parent="50xzQvIT4jbEVRJ5lRhD-2" vertex="1">
          <mxGeometry x="30" width="120" height="40" as="geometry" />
        </mxCell>
        <mxCell id="50xzQvIT4jbEVRJ5lRhD-4" value="0" style="text;html=1;align=center;verticalAlign=middle;resizable=0;points=[];autosize=1;strokeColor=none;fillColor=none;" parent="50xzQvIT4jbEVRJ5lRhD-2" vertex="1">
          <mxGeometry y="5" width="30" height="30" as="geometry" />
        </mxCell>
        <mxCell id="50xzQvIT4jbEVRJ5lRhD-5" value="" style="group" parent="50xzQvIT4jbEVRJ5lRhD-1" vertex="1" connectable="0">
          <mxGeometry x="90" y="140" width="150" height="40" as="geometry" />
        </mxCell>
        <mxCell id="50xzQvIT4jbEVRJ5lRhD-6" value="" style="rounded=0;whiteSpace=wrap;html=1;" parent="50xzQvIT4jbEVRJ5lRhD-5" vertex="1">
          <mxGeometry x="30" width="120" height="40" as="geometry" />
        </mxCell>
        <mxCell id="50xzQvIT4jbEVRJ5lRhD-7" value="1" style="text;html=1;align=center;verticalAlign=middle;resizable=0;points=[];autosize=1;strokeColor=none;fillColor=none;" parent="50xzQvIT4jbEVRJ5lRhD-5" vertex="1">
          <mxGeometry y="5" width="30" height="30" as="geometry" />
        </mxCell>
        <mxCell id="50xzQvIT4jbEVRJ5lRhD-8" value="" style="group" parent="50xzQvIT4jbEVRJ5lRhD-1" vertex="1" connectable="0">
          <mxGeometry x="90" y="200" width="150" height="40" as="geometry" />
        </mxCell>
        <mxCell id="50xzQvIT4jbEVRJ5lRhD-9" value="102" style="rounded=0;whiteSpace=wrap;html=1;" parent="50xzQvIT4jbEVRJ5lRhD-8" vertex="1">
          <mxGeometry x="30" width="120" height="40" as="geometry" />
        </mxCell>
        <mxCell id="50xzQvIT4jbEVRJ5lRhD-10" value="2" style="text;html=1;align=center;verticalAlign=middle;resizable=0;points=[];autosize=1;strokeColor=none;fillColor=none;" parent="50xzQvIT4jbEVRJ5lRhD-8" vertex="1">
          <mxGeometry y="5" width="30" height="30" as="geometry" />
        </mxCell>
        <mxCell id="50xzQvIT4jbEVRJ5lRhD-11" value="" style="group" parent="50xzQvIT4jbEVRJ5lRhD-1" vertex="1" connectable="0">
          <mxGeometry x="90" y="320" width="150" height="40" as="geometry" />
        </mxCell>
        <mxCell id="50xzQvIT4jbEVRJ5lRhD-12" value="&lt;span style=&quot;text-wrap: nowrap;&quot;&gt;53&lt;/span&gt;" style="rounded=0;whiteSpace=wrap;html=1;" parent="50xzQvIT4jbEVRJ5lRhD-11" vertex="1">
          <mxGeometry x="30" width="120" height="40" as="geometry" />
        </mxCell>
        <mxCell id="50xzQvIT4jbEVRJ5lRhD-13" value="4" style="text;html=1;align=center;verticalAlign=middle;resizable=0;points=[];autosize=1;strokeColor=none;fillColor=none;" parent="50xzQvIT4jbEVRJ5lRhD-11" vertex="1">
          <mxGeometry y="5" width="30" height="30" as="geometry" />
        </mxCell>
        <mxCell id="50xzQvIT4jbEVRJ5lRhD-15" value="" style="group" parent="50xzQvIT4jbEVRJ5lRhD-1" vertex="1" connectable="0">
          <mxGeometry x="90" y="270" width="150" height="40" as="geometry" />
        </mxCell>
        <mxCell id="50xzQvIT4jbEVRJ5lRhD-16" value="" style="rounded=0;whiteSpace=wrap;html=1;" parent="50xzQvIT4jbEVRJ5lRhD-15" vertex="1">
          <mxGeometry x="30" y="-10" width="120" height="40" as="geometry" />
        </mxCell>
        <mxCell id="50xzQvIT4jbEVRJ5lRhD-17" value="3" style="text;html=1;align=center;verticalAlign=middle;resizable=0;points=[];autosize=1;strokeColor=none;fillColor=none;" parent="50xzQvIT4jbEVRJ5lRhD-15" vertex="1">
          <mxGeometry y="5" width="30" height="30" as="geometry" />
        </mxCell>
        <mxCell id="50xzQvIT4jbEVRJ5lRhD-18" value="83" style="text;html=1;align=center;verticalAlign=middle;resizable=0;points=[];autosize=1;strokeColor=none;fillColor=none;" parent="50xzQvIT4jbEVRJ5lRhD-15" vertex="1">
          <mxGeometry x="70" y="-5" width="40" height="30" as="geometry" />
        </mxCell>
        <mxCell id="50xzQvIT4jbEVRJ5lRhD-19" value="" style="group" parent="50xzQvIT4jbEVRJ5lRhD-1" vertex="1" connectable="0">
          <mxGeometry x="90" y="380" width="150" height="40" as="geometry" />
        </mxCell>
        <mxCell id="50xzQvIT4jbEVRJ5lRhD-20" value="&lt;span style=&quot;color: rgb(0, 0, 0); font-family: Helvetica; font-size: 12px; font-style: normal; font-variant-ligatures: normal; font-variant-caps: normal; font-weight: 400; letter-spacing: normal; orphans: 2; text-align: center; text-indent: 0px; text-transform: none; widows: 2; word-spacing: 0px; -webkit-text-stroke-width: 0px; white-space: nowrap; background-color: rgb(251, 251, 251); text-decoration-thickness: initial; text-decoration-style: initial; text-decoration-color: initial; display: inline !important; float: none;&quot;&gt;2&lt;/span&gt;" style="rounded=0;whiteSpace=wrap;html=1;" parent="50xzQvIT4jbEVRJ5lRhD-19" vertex="1">
          <mxGeometry x="30" width="120" height="40" as="geometry" />
        </mxCell>
        <mxCell id="50xzQvIT4jbEVRJ5lRhD-21" value="5" style="text;html=1;align=center;verticalAlign=middle;resizable=0;points=[];autosize=1;strokeColor=none;fillColor=none;" parent="50xzQvIT4jbEVRJ5lRhD-19" vertex="1">
          <mxGeometry y="5" width="30" height="30" as="geometry" />
        </mxCell>
        <mxCell id="50xzQvIT4jbEVRJ5lRhD-23" value="" style="group" parent="50xzQvIT4jbEVRJ5lRhD-1" vertex="1" connectable="0">
          <mxGeometry x="90" y="440" width="150" height="40" as="geometry" />
        </mxCell>
        <mxCell id="50xzQvIT4jbEVRJ5lRhD-24" value="" style="rounded=0;whiteSpace=wrap;html=1;" parent="50xzQvIT4jbEVRJ5lRhD-23" vertex="1">
          <mxGeometry x="30" width="120" height="40" as="geometry" />
        </mxCell>
        <mxCell id="50xzQvIT4jbEVRJ5lRhD-25" value="6" style="text;html=1;align=center;verticalAlign=middle;resizable=0;points=[];autosize=1;strokeColor=none;fillColor=none;" parent="50xzQvIT4jbEVRJ5lRhD-23" vertex="1">
          <mxGeometry y="5" width="30" height="30" as="geometry" />
        </mxCell>
        <mxCell id="50xzQvIT4jbEVRJ5lRhD-27" value="" style="group" parent="50xzQvIT4jbEVRJ5lRhD-1" vertex="1" connectable="0">
          <mxGeometry x="90" y="500" width="150" height="40" as="geometry" />
        </mxCell>
        <mxCell id="50xzQvIT4jbEVRJ5lRhD-28" value="" style="rounded=0;whiteSpace=wrap;html=1;" parent="50xzQvIT4jbEVRJ5lRhD-27" vertex="1">
          <mxGeometry x="30" width="120" height="40" as="geometry" />
        </mxCell>
        <mxCell id="50xzQvIT4jbEVRJ5lRhD-29" value="7" style="text;html=1;align=center;verticalAlign=middle;resizable=0;points=[];autosize=1;strokeColor=none;fillColor=none;" parent="50xzQvIT4jbEVRJ5lRhD-27" vertex="1">
          <mxGeometry y="5" width="30" height="30" as="geometry" />
        </mxCell>
        <mxCell id="50xzQvIT4jbEVRJ5lRhD-30" value="" style="group" parent="50xzQvIT4jbEVRJ5lRhD-1" vertex="1" connectable="0">
          <mxGeometry x="90" y="620" width="150" height="40" as="geometry" />
        </mxCell>
        <mxCell id="50xzQvIT4jbEVRJ5lRhD-31" value="" style="rounded=0;whiteSpace=wrap;html=1;" parent="50xzQvIT4jbEVRJ5lRhD-30" vertex="1">
          <mxGeometry x="30" width="120" height="40" as="geometry" />
        </mxCell>
        <mxCell id="50xzQvIT4jbEVRJ5lRhD-32" value="9" style="text;html=1;align=center;verticalAlign=middle;resizable=0;points=[];autosize=1;strokeColor=none;fillColor=none;" parent="50xzQvIT4jbEVRJ5lRhD-30" vertex="1">
          <mxGeometry y="5" width="30" height="30" as="geometry" />
        </mxCell>
        <mxCell id="50xzQvIT4jbEVRJ5lRhD-33" value="" style="group" parent="50xzQvIT4jbEVRJ5lRhD-1" vertex="1" connectable="0">
          <mxGeometry x="90" y="570" width="150" height="40" as="geometry" />
        </mxCell>
        <mxCell id="50xzQvIT4jbEVRJ5lRhD-34" value="" style="rounded=0;whiteSpace=wrap;html=1;" parent="50xzQvIT4jbEVRJ5lRhD-33" vertex="1">
          <mxGeometry x="30" y="-10" width="120" height="40" as="geometry" />
        </mxCell>
        <mxCell id="50xzQvIT4jbEVRJ5lRhD-35" value="8" style="text;html=1;align=center;verticalAlign=middle;resizable=0;points=[];autosize=1;strokeColor=none;fillColor=none;" parent="50xzQvIT4jbEVRJ5lRhD-33" vertex="1">
          <mxGeometry y="5" width="30" height="30" as="geometry" />
        </mxCell>
        <mxCell id="50xzQvIT4jbEVRJ5lRhD-36" value="Tamanha = 10" style="text;html=1;align=center;verticalAlign=middle;resizable=0;points=[];autosize=1;strokeColor=none;fillColor=none;" parent="50xzQvIT4jbEVRJ5lRhD-1" vertex="1">
          <mxGeometry x="30" y="10" width="100" height="30" as="geometry" />
        </mxCell>
        <mxCell id="50xzQvIT4jbEVRJ5lRhD-37" value="FÃ³rmula hash: %10 (mod)" style="text;html=1;align=center;verticalAlign=middle;resizable=0;points=[];autosize=1;strokeColor=none;fillColor=none;" parent="50xzQvIT4jbEVRJ5lRhD-1" vertex="1">
          <mxGeometry x="160" y="10" width="160" height="30" as="geometry" />
        </mxCell>
        <mxCell id="50xzQvIT4jbEVRJ5lRhD-38" value="arruma" style="text;html=1;align=center;verticalAlign=middle;resizable=0;points=[];autosize=1;strokeColor=none;fillColor=none;" parent="50xzQvIT4jbEVRJ5lRhD-1" vertex="1">
          <mxGeometry x="290" y="128" width="60" height="30" as="geometry" />
        </mxCell>
      </root>
    </mxGraphModel>
  </diagram>
  <diagram name="14" id="s9t2uUAV8BEOFlfO6yMl">
    <mxGraphModel dx="995" dy="592" grid="1" gridSize="10" guides="1" tooltips="1" connect="1" arrows="1" fold="1" page="1" pageScale="1" pageWidth="850" pageHeight="1100" math="0" shadow="0">
      <root>
        <mxCell id="M_WpKk6mwrCj8p6azhEB-0" />
        <mxCell id="M_WpKk6mwrCj8p6azhEB-1" parent="M_WpKk6mwrCj8p6azhEB-0" />
        <mxCell id="M_WpKk6mwrCj8p6azhEB-2" value="" style="group" parent="M_WpKk6mwrCj8p6azhEB-1" vertex="1" connectable="0">
          <mxGeometry x="90" y="80" width="150" height="40" as="geometry" />
        </mxCell>
        <mxCell id="M_WpKk6mwrCj8p6azhEB-3" value="" style="rounded=0;whiteSpace=wrap;html=1;" parent="M_WpKk6mwrCj8p6azhEB-2" vertex="1">
          <mxGeometry x="30" width="120" height="40" as="geometry" />
        </mxCell>
        <mxCell id="M_WpKk6mwrCj8p6azhEB-4" value="0" style="text;html=1;align=center;verticalAlign=middle;resizable=0;points=[];autosize=1;strokeColor=none;fillColor=none;" parent="M_WpKk6mwrCj8p6azhEB-2" vertex="1">
          <mxGeometry y="5" width="30" height="30" as="geometry" />
        </mxCell>
        <mxCell id="M_WpKk6mwrCj8p6azhEB-5" value="" style="group" parent="M_WpKk6mwrCj8p6azhEB-1" vertex="1" connectable="0">
          <mxGeometry x="90" y="140" width="150" height="40" as="geometry" />
        </mxCell>
        <mxCell id="M_WpKk6mwrCj8p6azhEB-6" value="" style="rounded=0;whiteSpace=wrap;html=1;" parent="M_WpKk6mwrCj8p6azhEB-5" vertex="1">
          <mxGeometry x="30" width="120" height="40" as="geometry" />
        </mxCell>
        <mxCell id="M_WpKk6mwrCj8p6azhEB-7" value="1" style="text;html=1;align=center;verticalAlign=middle;resizable=0;points=[];autosize=1;strokeColor=none;fillColor=none;" parent="M_WpKk6mwrCj8p6azhEB-5" vertex="1">
          <mxGeometry y="5" width="30" height="30" as="geometry" />
        </mxCell>
        <mxCell id="M_WpKk6mwrCj8p6azhEB-8" value="" style="group" parent="M_WpKk6mwrCj8p6azhEB-1" vertex="1" connectable="0">
          <mxGeometry x="90" y="200" width="150" height="40" as="geometry" />
        </mxCell>
        <mxCell id="M_WpKk6mwrCj8p6azhEB-9" value="102" style="rounded=0;whiteSpace=wrap;html=1;" parent="M_WpKk6mwrCj8p6azhEB-8" vertex="1">
          <mxGeometry x="30" width="120" height="40" as="geometry" />
        </mxCell>
        <mxCell id="M_WpKk6mwrCj8p6azhEB-10" value="2" style="text;html=1;align=center;verticalAlign=middle;resizable=0;points=[];autosize=1;strokeColor=none;fillColor=none;" parent="M_WpKk6mwrCj8p6azhEB-8" vertex="1">
          <mxGeometry y="5" width="30" height="30" as="geometry" />
        </mxCell>
        <mxCell id="M_WpKk6mwrCj8p6azhEB-11" value="" style="group" parent="M_WpKk6mwrCj8p6azhEB-1" vertex="1" connectable="0">
          <mxGeometry x="90" y="320" width="150" height="40" as="geometry" />
        </mxCell>
        <mxCell id="M_WpKk6mwrCj8p6azhEB-12" value="&lt;span style=&quot;text-wrap: nowrap;&quot;&gt;53&lt;/span&gt;" style="rounded=0;whiteSpace=wrap;html=1;" parent="M_WpKk6mwrCj8p6azhEB-11" vertex="1">
          <mxGeometry x="30" width="120" height="40" as="geometry" />
        </mxCell>
        <mxCell id="M_WpKk6mwrCj8p6azhEB-13" value="4" style="text;html=1;align=center;verticalAlign=middle;resizable=0;points=[];autosize=1;strokeColor=none;fillColor=none;" parent="M_WpKk6mwrCj8p6azhEB-11" vertex="1">
          <mxGeometry y="5" width="30" height="30" as="geometry" />
        </mxCell>
        <mxCell id="M_WpKk6mwrCj8p6azhEB-14" value="" style="group" parent="M_WpKk6mwrCj8p6azhEB-1" vertex="1" connectable="0">
          <mxGeometry x="90" y="270" width="150" height="40" as="geometry" />
        </mxCell>
        <mxCell id="M_WpKk6mwrCj8p6azhEB-15" value="" style="rounded=0;whiteSpace=wrap;html=1;" parent="M_WpKk6mwrCj8p6azhEB-14" vertex="1">
          <mxGeometry x="30" y="-10" width="120" height="40" as="geometry" />
        </mxCell>
        <mxCell id="M_WpKk6mwrCj8p6azhEB-16" value="3" style="text;html=1;align=center;verticalAlign=middle;resizable=0;points=[];autosize=1;strokeColor=none;fillColor=none;" parent="M_WpKk6mwrCj8p6azhEB-14" vertex="1">
          <mxGeometry y="5" width="30" height="30" as="geometry" />
        </mxCell>
        <mxCell id="M_WpKk6mwrCj8p6azhEB-17" value="83" style="text;html=1;align=center;verticalAlign=middle;resizable=0;points=[];autosize=1;strokeColor=none;fillColor=none;" parent="M_WpKk6mwrCj8p6azhEB-14" vertex="1">
          <mxGeometry x="70" y="-5" width="40" height="30" as="geometry" />
        </mxCell>
        <mxCell id="M_WpKk6mwrCj8p6azhEB-18" value="" style="group" parent="M_WpKk6mwrCj8p6azhEB-1" vertex="1" connectable="0">
          <mxGeometry x="90" y="380" width="150" height="40" as="geometry" />
        </mxCell>
        <mxCell id="M_WpKk6mwrCj8p6azhEB-19" value="&lt;span style=&quot;color: rgb(0, 0, 0); font-family: Helvetica; font-size: 12px; font-style: normal; font-variant-ligatures: normal; font-variant-caps: normal; font-weight: 400; letter-spacing: normal; orphans: 2; text-align: center; text-indent: 0px; text-transform: none; widows: 2; word-spacing: 0px; -webkit-text-stroke-width: 0px; white-space: nowrap; background-color: rgb(251, 251, 251); text-decoration-thickness: initial; text-decoration-style: initial; text-decoration-color: initial; display: inline !important; float: none;&quot;&gt;2&lt;/span&gt;" style="rounded=0;whiteSpace=wrap;html=1;" parent="M_WpKk6mwrCj8p6azhEB-18" vertex="1">
          <mxGeometry x="30" width="120" height="40" as="geometry" />
        </mxCell>
        <mxCell id="M_WpKk6mwrCj8p6azhEB-20" value="5" style="text;html=1;align=center;verticalAlign=middle;resizable=0;points=[];autosize=1;strokeColor=none;fillColor=none;" parent="M_WpKk6mwrCj8p6azhEB-18" vertex="1">
          <mxGeometry y="5" width="30" height="30" as="geometry" />
        </mxCell>
        <mxCell id="M_WpKk6mwrCj8p6azhEB-21" value="" style="group" parent="M_WpKk6mwrCj8p6azhEB-1" vertex="1" connectable="0">
          <mxGeometry x="90" y="440" width="150" height="40" as="geometry" />
        </mxCell>
        <mxCell id="M_WpKk6mwrCj8p6azhEB-22" value="" style="rounded=0;whiteSpace=wrap;html=1;" parent="M_WpKk6mwrCj8p6azhEB-21" vertex="1">
          <mxGeometry x="30" width="120" height="40" as="geometry" />
        </mxCell>
        <mxCell id="M_WpKk6mwrCj8p6azhEB-23" value="6" style="text;html=1;align=center;verticalAlign=middle;resizable=0;points=[];autosize=1;strokeColor=none;fillColor=none;" parent="M_WpKk6mwrCj8p6azhEB-21" vertex="1">
          <mxGeometry y="5" width="30" height="30" as="geometry" />
        </mxCell>
        <mxCell id="M_WpKk6mwrCj8p6azhEB-24" value="" style="group" parent="M_WpKk6mwrCj8p6azhEB-1" vertex="1" connectable="0">
          <mxGeometry x="90" y="500" width="150" height="40" as="geometry" />
        </mxCell>
        <mxCell id="M_WpKk6mwrCj8p6azhEB-25" value="" style="rounded=0;whiteSpace=wrap;html=1;" parent="M_WpKk6mwrCj8p6azhEB-24" vertex="1">
          <mxGeometry x="30" width="120" height="40" as="geometry" />
        </mxCell>
        <mxCell id="M_WpKk6mwrCj8p6azhEB-26" value="7" style="text;html=1;align=center;verticalAlign=middle;resizable=0;points=[];autosize=1;strokeColor=none;fillColor=none;" parent="M_WpKk6mwrCj8p6azhEB-24" vertex="1">
          <mxGeometry y="5" width="30" height="30" as="geometry" />
        </mxCell>
        <mxCell id="M_WpKk6mwrCj8p6azhEB-27" value="" style="group" parent="M_WpKk6mwrCj8p6azhEB-1" vertex="1" connectable="0">
          <mxGeometry x="90" y="620" width="150" height="40" as="geometry" />
        </mxCell>
        <mxCell id="M_WpKk6mwrCj8p6azhEB-28" value="" style="rounded=0;whiteSpace=wrap;html=1;" parent="M_WpKk6mwrCj8p6azhEB-27" vertex="1">
          <mxGeometry x="30" width="120" height="40" as="geometry" />
        </mxCell>
        <mxCell id="M_WpKk6mwrCj8p6azhEB-29" value="9" style="text;html=1;align=center;verticalAlign=middle;resizable=0;points=[];autosize=1;strokeColor=none;fillColor=none;" parent="M_WpKk6mwrCj8p6azhEB-27" vertex="1">
          <mxGeometry y="5" width="30" height="30" as="geometry" />
        </mxCell>
        <mxCell id="M_WpKk6mwrCj8p6azhEB-30" value="" style="group" parent="M_WpKk6mwrCj8p6azhEB-1" vertex="1" connectable="0">
          <mxGeometry x="90" y="570" width="150" height="40" as="geometry" />
        </mxCell>
        <mxCell id="M_WpKk6mwrCj8p6azhEB-31" value="" style="rounded=0;whiteSpace=wrap;html=1;" parent="M_WpKk6mwrCj8p6azhEB-30" vertex="1">
          <mxGeometry x="30" y="-10" width="120" height="40" as="geometry" />
        </mxCell>
        <mxCell id="M_WpKk6mwrCj8p6azhEB-32" value="8" style="text;html=1;align=center;verticalAlign=middle;resizable=0;points=[];autosize=1;strokeColor=none;fillColor=none;" parent="M_WpKk6mwrCj8p6azhEB-30" vertex="1">
          <mxGeometry y="5" width="30" height="30" as="geometry" />
        </mxCell>
        <mxCell id="M_WpKk6mwrCj8p6azhEB-33" value="Tamanha = 10" style="text;html=1;align=center;verticalAlign=middle;resizable=0;points=[];autosize=1;strokeColor=none;fillColor=none;" parent="M_WpKk6mwrCj8p6azhEB-1" vertex="1">
          <mxGeometry x="30" y="10" width="100" height="30" as="geometry" />
        </mxCell>
        <mxCell id="M_WpKk6mwrCj8p6azhEB-34" value="FÃ³rmula hash: %10 (mod)" style="text;html=1;align=center;verticalAlign=middle;resizable=0;points=[];autosize=1;strokeColor=none;fillColor=none;" parent="M_WpKk6mwrCj8p6azhEB-1" vertex="1">
          <mxGeometry x="160" y="10" width="160" height="30" as="geometry" />
        </mxCell>
        <mxCell id="eN2Cqq1j3XibbT8geqfK-0" value="Remover 102 com o mÃ©todo 2" style="text;html=1;align=center;verticalAlign=middle;resizable=0;points=[];autosize=1;strokeColor=none;fillColor=none;" vertex="1" parent="M_WpKk6mwrCj8p6azhEB-1">
          <mxGeometry x="280" y="160" width="180" height="30" as="geometry" />
        </mxCell>
      </root>
    </mxGraphModel>
  </diagram>
  <diagram name="Copy of 14" id="Ik9gRp0jheXD0wX1WBzW">
    <mxGraphModel dx="995" dy="592" grid="1" gridSize="10" guides="1" tooltips="1" connect="1" arrows="1" fold="1" page="1" pageScale="1" pageWidth="850" pageHeight="1100" math="0" shadow="0">
      <root>
        <mxCell id="BUFkUsTa83zty5u0TzrG-0" />
        <mxCell id="BUFkUsTa83zty5u0TzrG-1" parent="BUFkUsTa83zty5u0TzrG-0" />
        <mxCell id="BUFkUsTa83zty5u0TzrG-2" value="" style="group" vertex="1" connectable="0" parent="BUFkUsTa83zty5u0TzrG-1">
          <mxGeometry x="90" y="80" width="150" height="40" as="geometry" />
        </mxCell>
        <mxCell id="BUFkUsTa83zty5u0TzrG-3" value="" style="rounded=0;whiteSpace=wrap;html=1;" vertex="1" parent="BUFkUsTa83zty5u0TzrG-2">
          <mxGeometry x="30" width="120" height="40" as="geometry" />
        </mxCell>
        <mxCell id="BUFkUsTa83zty5u0TzrG-4" value="0" style="text;html=1;align=center;verticalAlign=middle;resizable=0;points=[];autosize=1;strokeColor=none;fillColor=none;" vertex="1" parent="BUFkUsTa83zty5u0TzrG-2">
          <mxGeometry y="5" width="30" height="30" as="geometry" />
        </mxCell>
        <mxCell id="BUFkUsTa83zty5u0TzrG-5" value="" style="group" vertex="1" connectable="0" parent="BUFkUsTa83zty5u0TzrG-1">
          <mxGeometry x="90" y="140" width="150" height="40" as="geometry" />
        </mxCell>
        <mxCell id="BUFkUsTa83zty5u0TzrG-6" value="" style="rounded=0;whiteSpace=wrap;html=1;" vertex="1" parent="BUFkUsTa83zty5u0TzrG-5">
          <mxGeometry x="30" width="120" height="40" as="geometry" />
        </mxCell>
        <mxCell id="BUFkUsTa83zty5u0TzrG-7" value="1" style="text;html=1;align=center;verticalAlign=middle;resizable=0;points=[];autosize=1;strokeColor=none;fillColor=none;" vertex="1" parent="BUFkUsTa83zty5u0TzrG-5">
          <mxGeometry y="5" width="30" height="30" as="geometry" />
        </mxCell>
        <mxCell id="BUFkUsTa83zty5u0TzrG-8" value="" style="group" vertex="1" connectable="0" parent="BUFkUsTa83zty5u0TzrG-1">
          <mxGeometry x="90" y="200" width="150" height="40" as="geometry" />
        </mxCell>
        <mxCell id="BUFkUsTa83zty5u0TzrG-9" value="-2" style="rounded=0;whiteSpace=wrap;html=1;" vertex="1" parent="BUFkUsTa83zty5u0TzrG-8">
          <mxGeometry x="30" width="120" height="40" as="geometry" />
        </mxCell>
        <mxCell id="BUFkUsTa83zty5u0TzrG-10" value="2" style="text;html=1;align=center;verticalAlign=middle;resizable=0;points=[];autosize=1;strokeColor=none;fillColor=none;" vertex="1" parent="BUFkUsTa83zty5u0TzrG-8">
          <mxGeometry y="5" width="30" height="30" as="geometry" />
        </mxCell>
        <mxCell id="BUFkUsTa83zty5u0TzrG-11" value="" style="group" vertex="1" connectable="0" parent="BUFkUsTa83zty5u0TzrG-1">
          <mxGeometry x="90" y="320" width="150" height="40" as="geometry" />
        </mxCell>
        <mxCell id="BUFkUsTa83zty5u0TzrG-12" value="&lt;span style=&quot;text-wrap: nowrap;&quot;&gt;53&lt;/span&gt;" style="rounded=0;whiteSpace=wrap;html=1;" vertex="1" parent="BUFkUsTa83zty5u0TzrG-11">
          <mxGeometry x="30" width="120" height="40" as="geometry" />
        </mxCell>
        <mxCell id="BUFkUsTa83zty5u0TzrG-13" value="4" style="text;html=1;align=center;verticalAlign=middle;resizable=0;points=[];autosize=1;strokeColor=none;fillColor=none;" vertex="1" parent="BUFkUsTa83zty5u0TzrG-11">
          <mxGeometry y="5" width="30" height="30" as="geometry" />
        </mxCell>
        <mxCell id="BUFkUsTa83zty5u0TzrG-14" value="" style="group" vertex="1" connectable="0" parent="BUFkUsTa83zty5u0TzrG-1">
          <mxGeometry x="90" y="270" width="150" height="40" as="geometry" />
        </mxCell>
        <mxCell id="BUFkUsTa83zty5u0TzrG-15" value="" style="rounded=0;whiteSpace=wrap;html=1;" vertex="1" parent="BUFkUsTa83zty5u0TzrG-14">
          <mxGeometry x="30" y="-10" width="120" height="40" as="geometry" />
        </mxCell>
        <mxCell id="BUFkUsTa83zty5u0TzrG-16" value="3" style="text;html=1;align=center;verticalAlign=middle;resizable=0;points=[];autosize=1;strokeColor=none;fillColor=none;" vertex="1" parent="BUFkUsTa83zty5u0TzrG-14">
          <mxGeometry y="5" width="30" height="30" as="geometry" />
        </mxCell>
        <mxCell id="BUFkUsTa83zty5u0TzrG-17" value="83" style="text;html=1;align=center;verticalAlign=middle;resizable=0;points=[];autosize=1;strokeColor=none;fillColor=none;" vertex="1" parent="BUFkUsTa83zty5u0TzrG-14">
          <mxGeometry x="70" y="-5" width="40" height="30" as="geometry" />
        </mxCell>
        <mxCell id="BUFkUsTa83zty5u0TzrG-18" value="" style="group" vertex="1" connectable="0" parent="BUFkUsTa83zty5u0TzrG-1">
          <mxGeometry x="90" y="380" width="150" height="40" as="geometry" />
        </mxCell>
        <mxCell id="BUFkUsTa83zty5u0TzrG-19" value="&lt;span style=&quot;color: rgb(0, 0, 0); font-family: Helvetica; font-size: 12px; font-style: normal; font-variant-ligatures: normal; font-variant-caps: normal; font-weight: 400; letter-spacing: normal; orphans: 2; text-align: center; text-indent: 0px; text-transform: none; widows: 2; word-spacing: 0px; -webkit-text-stroke-width: 0px; white-space: nowrap; background-color: rgb(251, 251, 251); text-decoration-thickness: initial; text-decoration-style: initial; text-decoration-color: initial; display: inline !important; float: none;&quot;&gt;2&lt;/span&gt;" style="rounded=0;whiteSpace=wrap;html=1;" vertex="1" parent="BUFkUsTa83zty5u0TzrG-18">
          <mxGeometry x="30" width="120" height="40" as="geometry" />
        </mxCell>
        <mxCell id="BUFkUsTa83zty5u0TzrG-20" value="5" style="text;html=1;align=center;verticalAlign=middle;resizable=0;points=[];autosize=1;strokeColor=none;fillColor=none;" vertex="1" parent="BUFkUsTa83zty5u0TzrG-18">
          <mxGeometry y="5" width="30" height="30" as="geometry" />
        </mxCell>
        <mxCell id="BUFkUsTa83zty5u0TzrG-21" value="" style="group" vertex="1" connectable="0" parent="BUFkUsTa83zty5u0TzrG-1">
          <mxGeometry x="90" y="440" width="150" height="40" as="geometry" />
        </mxCell>
        <mxCell id="BUFkUsTa83zty5u0TzrG-22" value="" style="rounded=0;whiteSpace=wrap;html=1;" vertex="1" parent="BUFkUsTa83zty5u0TzrG-21">
          <mxGeometry x="30" width="120" height="40" as="geometry" />
        </mxCell>
        <mxCell id="BUFkUsTa83zty5u0TzrG-23" value="6" style="text;html=1;align=center;verticalAlign=middle;resizable=0;points=[];autosize=1;strokeColor=none;fillColor=none;" vertex="1" parent="BUFkUsTa83zty5u0TzrG-21">
          <mxGeometry y="5" width="30" height="30" as="geometry" />
        </mxCell>
        <mxCell id="BUFkUsTa83zty5u0TzrG-24" value="" style="group" vertex="1" connectable="0" parent="BUFkUsTa83zty5u0TzrG-1">
          <mxGeometry x="90" y="500" width="150" height="40" as="geometry" />
        </mxCell>
        <mxCell id="BUFkUsTa83zty5u0TzrG-25" value="" style="rounded=0;whiteSpace=wrap;html=1;" vertex="1" parent="BUFkUsTa83zty5u0TzrG-24">
          <mxGeometry x="30" width="120" height="40" as="geometry" />
        </mxCell>
        <mxCell id="BUFkUsTa83zty5u0TzrG-26" value="7" style="text;html=1;align=center;verticalAlign=middle;resizable=0;points=[];autosize=1;strokeColor=none;fillColor=none;" vertex="1" parent="BUFkUsTa83zty5u0TzrG-24">
          <mxGeometry y="5" width="30" height="30" as="geometry" />
        </mxCell>
        <mxCell id="BUFkUsTa83zty5u0TzrG-27" value="" style="group" vertex="1" connectable="0" parent="BUFkUsTa83zty5u0TzrG-1">
          <mxGeometry x="90" y="620" width="150" height="40" as="geometry" />
        </mxCell>
        <mxCell id="BUFkUsTa83zty5u0TzrG-28" value="" style="rounded=0;whiteSpace=wrap;html=1;" vertex="1" parent="BUFkUsTa83zty5u0TzrG-27">
          <mxGeometry x="30" width="120" height="40" as="geometry" />
        </mxCell>
        <mxCell id="BUFkUsTa83zty5u0TzrG-29" value="9" style="text;html=1;align=center;verticalAlign=middle;resizable=0;points=[];autosize=1;strokeColor=none;fillColor=none;" vertex="1" parent="BUFkUsTa83zty5u0TzrG-27">
          <mxGeometry y="5" width="30" height="30" as="geometry" />
        </mxCell>
        <mxCell id="BUFkUsTa83zty5u0TzrG-30" value="" style="group" vertex="1" connectable="0" parent="BUFkUsTa83zty5u0TzrG-1">
          <mxGeometry x="90" y="570" width="150" height="40" as="geometry" />
        </mxCell>
        <mxCell id="BUFkUsTa83zty5u0TzrG-31" value="" style="rounded=0;whiteSpace=wrap;html=1;" vertex="1" parent="BUFkUsTa83zty5u0TzrG-30">
          <mxGeometry x="30" y="-10" width="120" height="40" as="geometry" />
        </mxCell>
        <mxCell id="BUFkUsTa83zty5u0TzrG-32" value="8" style="text;html=1;align=center;verticalAlign=middle;resizable=0;points=[];autosize=1;strokeColor=none;fillColor=none;" vertex="1" parent="BUFkUsTa83zty5u0TzrG-30">
          <mxGeometry y="5" width="30" height="30" as="geometry" />
        </mxCell>
        <mxCell id="BUFkUsTa83zty5u0TzrG-33" value="Tamanha = 10" style="text;html=1;align=center;verticalAlign=middle;resizable=0;points=[];autosize=1;strokeColor=none;fillColor=none;" vertex="1" parent="BUFkUsTa83zty5u0TzrG-1">
          <mxGeometry x="30" y="10" width="100" height="30" as="geometry" />
        </mxCell>
        <mxCell id="BUFkUsTa83zty5u0TzrG-34" value="FÃ³rmula hash: %10 (mod)" style="text;html=1;align=center;verticalAlign=middle;resizable=0;points=[];autosize=1;strokeColor=none;fillColor=none;" vertex="1" parent="BUFkUsTa83zty5u0TzrG-1">
          <mxGeometry x="160" y="10" width="160" height="30" as="geometry" />
        </mxCell>
        <mxCell id="BUFkUsTa83zty5u0TzrG-35" value="Remover 102 com o mÃ©todo 2" style="text;html=1;align=center;verticalAlign=middle;resizable=0;points=[];autosize=1;strokeColor=none;fillColor=none;" vertex="1" parent="BUFkUsTa83zty5u0TzrG-1">
          <mxGeometry x="280" y="160" width="180" height="30" as="geometry" />
        </mxCell>
      </root>
    </mxGraphModel>
  </diagram>
  <diagram name="Copy of Copy of 14" id="umTO2lFlRvDItCKo3xPd">
    <mxGraphModel dx="995" dy="592" grid="1" gridSize="10" guides="1" tooltips="1" connect="1" arrows="1" fold="1" page="1" pageScale="1" pageWidth="850" pageHeight="1100" math="0" shadow="0">
      <root>
        <mxCell id="Sx8AHAFWeWf0jTD64c3A-0" />
        <mxCell id="Sx8AHAFWeWf0jTD64c3A-1" parent="Sx8AHAFWeWf0jTD64c3A-0" />
        <mxCell id="Sx8AHAFWeWf0jTD64c3A-2" value="" style="group" vertex="1" connectable="0" parent="Sx8AHAFWeWf0jTD64c3A-1">
          <mxGeometry x="90" y="80" width="150" height="40" as="geometry" />
        </mxCell>
        <mxCell id="Sx8AHAFWeWf0jTD64c3A-3" value="" style="rounded=0;whiteSpace=wrap;html=1;" vertex="1" parent="Sx8AHAFWeWf0jTD64c3A-2">
          <mxGeometry x="30" width="120" height="40" as="geometry" />
        </mxCell>
        <mxCell id="Sx8AHAFWeWf0jTD64c3A-4" value="0" style="text;html=1;align=center;verticalAlign=middle;resizable=0;points=[];autosize=1;strokeColor=none;fillColor=none;" vertex="1" parent="Sx8AHAFWeWf0jTD64c3A-2">
          <mxGeometry y="5" width="30" height="30" as="geometry" />
        </mxCell>
        <mxCell id="Sx8AHAFWeWf0jTD64c3A-5" value="" style="group" vertex="1" connectable="0" parent="Sx8AHAFWeWf0jTD64c3A-1">
          <mxGeometry x="90" y="140" width="150" height="40" as="geometry" />
        </mxCell>
        <mxCell id="Sx8AHAFWeWf0jTD64c3A-6" value="" style="rounded=0;whiteSpace=wrap;html=1;" vertex="1" parent="Sx8AHAFWeWf0jTD64c3A-5">
          <mxGeometry x="30" width="120" height="40" as="geometry" />
        </mxCell>
        <mxCell id="Sx8AHAFWeWf0jTD64c3A-7" value="1" style="text;html=1;align=center;verticalAlign=middle;resizable=0;points=[];autosize=1;strokeColor=none;fillColor=none;" vertex="1" parent="Sx8AHAFWeWf0jTD64c3A-5">
          <mxGeometry y="5" width="30" height="30" as="geometry" />
        </mxCell>
        <mxCell id="Sx8AHAFWeWf0jTD64c3A-8" value="" style="group" vertex="1" connectable="0" parent="Sx8AHAFWeWf0jTD64c3A-1">
          <mxGeometry x="90" y="200" width="150" height="40" as="geometry" />
        </mxCell>
        <mxCell id="Sx8AHAFWeWf0jTD64c3A-9" value="-2" style="rounded=0;whiteSpace=wrap;html=1;" vertex="1" parent="Sx8AHAFWeWf0jTD64c3A-8">
          <mxGeometry x="30" width="120" height="40" as="geometry" />
        </mxCell>
        <mxCell id="Sx8AHAFWeWf0jTD64c3A-10" value="2" style="text;html=1;align=center;verticalAlign=middle;resizable=0;points=[];autosize=1;strokeColor=none;fillColor=none;" vertex="1" parent="Sx8AHAFWeWf0jTD64c3A-8">
          <mxGeometry y="5" width="30" height="30" as="geometry" />
        </mxCell>
        <mxCell id="Sx8AHAFWeWf0jTD64c3A-11" value="" style="group" vertex="1" connectable="0" parent="Sx8AHAFWeWf0jTD64c3A-1">
          <mxGeometry x="90" y="320" width="150" height="40" as="geometry" />
        </mxCell>
        <mxCell id="Sx8AHAFWeWf0jTD64c3A-12" value="&lt;span style=&quot;text-wrap: nowrap;&quot;&gt;53&lt;/span&gt;" style="rounded=0;whiteSpace=wrap;html=1;" vertex="1" parent="Sx8AHAFWeWf0jTD64c3A-11">
          <mxGeometry x="30" width="120" height="40" as="geometry" />
        </mxCell>
        <mxCell id="Sx8AHAFWeWf0jTD64c3A-13" value="4" style="text;html=1;align=center;verticalAlign=middle;resizable=0;points=[];autosize=1;strokeColor=none;fillColor=none;" vertex="1" parent="Sx8AHAFWeWf0jTD64c3A-11">
          <mxGeometry y="5" width="30" height="30" as="geometry" />
        </mxCell>
        <mxCell id="Sx8AHAFWeWf0jTD64c3A-14" value="" style="group" vertex="1" connectable="0" parent="Sx8AHAFWeWf0jTD64c3A-1">
          <mxGeometry x="90" y="270" width="150" height="40" as="geometry" />
        </mxCell>
        <mxCell id="Sx8AHAFWeWf0jTD64c3A-15" value="" style="rounded=0;whiteSpace=wrap;html=1;" vertex="1" parent="Sx8AHAFWeWf0jTD64c3A-14">
          <mxGeometry x="30" y="-10" width="120" height="40" as="geometry" />
        </mxCell>
        <mxCell id="Sx8AHAFWeWf0jTD64c3A-16" value="3" style="text;html=1;align=center;verticalAlign=middle;resizable=0;points=[];autosize=1;strokeColor=none;fillColor=none;" vertex="1" parent="Sx8AHAFWeWf0jTD64c3A-14">
          <mxGeometry y="5" width="30" height="30" as="geometry" />
        </mxCell>
        <mxCell id="Sx8AHAFWeWf0jTD64c3A-17" value="-2" style="text;html=1;align=center;verticalAlign=middle;resizable=0;points=[];autosize=1;strokeColor=none;fillColor=none;" vertex="1" parent="Sx8AHAFWeWf0jTD64c3A-14">
          <mxGeometry x="75" y="-5" width="30" height="30" as="geometry" />
        </mxCell>
        <mxCell id="Sx8AHAFWeWf0jTD64c3A-18" value="" style="group" vertex="1" connectable="0" parent="Sx8AHAFWeWf0jTD64c3A-1">
          <mxGeometry x="90" y="380" width="150" height="40" as="geometry" />
        </mxCell>
        <mxCell id="Sx8AHAFWeWf0jTD64c3A-19" value="&lt;span style=&quot;color: rgb(0, 0, 0); font-family: Helvetica; font-size: 12px; font-style: normal; font-variant-ligatures: normal; font-variant-caps: normal; font-weight: 400; letter-spacing: normal; orphans: 2; text-align: center; text-indent: 0px; text-transform: none; widows: 2; word-spacing: 0px; -webkit-text-stroke-width: 0px; white-space: nowrap; background-color: rgb(251, 251, 251); text-decoration-thickness: initial; text-decoration-style: initial; text-decoration-color: initial; display: inline !important; float: none;&quot;&gt;2&lt;/span&gt;" style="rounded=0;whiteSpace=wrap;html=1;" vertex="1" parent="Sx8AHAFWeWf0jTD64c3A-18">
          <mxGeometry x="30" width="120" height="40" as="geometry" />
        </mxCell>
        <mxCell id="Sx8AHAFWeWf0jTD64c3A-20" value="5" style="text;html=1;align=center;verticalAlign=middle;resizable=0;points=[];autosize=1;strokeColor=none;fillColor=none;" vertex="1" parent="Sx8AHAFWeWf0jTD64c3A-18">
          <mxGeometry y="5" width="30" height="30" as="geometry" />
        </mxCell>
        <mxCell id="Sx8AHAFWeWf0jTD64c3A-21" value="" style="group" vertex="1" connectable="0" parent="Sx8AHAFWeWf0jTD64c3A-1">
          <mxGeometry x="90" y="440" width="150" height="40" as="geometry" />
        </mxCell>
        <mxCell id="Sx8AHAFWeWf0jTD64c3A-22" value="" style="rounded=0;whiteSpace=wrap;html=1;" vertex="1" parent="Sx8AHAFWeWf0jTD64c3A-21">
          <mxGeometry x="30" width="120" height="40" as="geometry" />
        </mxCell>
        <mxCell id="Sx8AHAFWeWf0jTD64c3A-23" value="6" style="text;html=1;align=center;verticalAlign=middle;resizable=0;points=[];autosize=1;strokeColor=none;fillColor=none;" vertex="1" parent="Sx8AHAFWeWf0jTD64c3A-21">
          <mxGeometry y="5" width="30" height="30" as="geometry" />
        </mxCell>
        <mxCell id="Sx8AHAFWeWf0jTD64c3A-24" value="" style="group" vertex="1" connectable="0" parent="Sx8AHAFWeWf0jTD64c3A-1">
          <mxGeometry x="90" y="500" width="150" height="40" as="geometry" />
        </mxCell>
        <mxCell id="Sx8AHAFWeWf0jTD64c3A-25" value="" style="rounded=0;whiteSpace=wrap;html=1;" vertex="1" parent="Sx8AHAFWeWf0jTD64c3A-24">
          <mxGeometry x="30" width="120" height="40" as="geometry" />
        </mxCell>
        <mxCell id="Sx8AHAFWeWf0jTD64c3A-26" value="7" style="text;html=1;align=center;verticalAlign=middle;resizable=0;points=[];autosize=1;strokeColor=none;fillColor=none;" vertex="1" parent="Sx8AHAFWeWf0jTD64c3A-24">
          <mxGeometry y="5" width="30" height="30" as="geometry" />
        </mxCell>
        <mxCell id="Sx8AHAFWeWf0jTD64c3A-27" value="" style="group" vertex="1" connectable="0" parent="Sx8AHAFWeWf0jTD64c3A-1">
          <mxGeometry x="90" y="620" width="150" height="40" as="geometry" />
        </mxCell>
        <mxCell id="Sx8AHAFWeWf0jTD64c3A-28" value="" style="rounded=0;whiteSpace=wrap;html=1;" vertex="1" parent="Sx8AHAFWeWf0jTD64c3A-27">
          <mxGeometry x="30" width="120" height="40" as="geometry" />
        </mxCell>
        <mxCell id="Sx8AHAFWeWf0jTD64c3A-29" value="9" style="text;html=1;align=center;verticalAlign=middle;resizable=0;points=[];autosize=1;strokeColor=none;fillColor=none;" vertex="1" parent="Sx8AHAFWeWf0jTD64c3A-27">
          <mxGeometry y="5" width="30" height="30" as="geometry" />
        </mxCell>
        <mxCell id="Sx8AHAFWeWf0jTD64c3A-30" value="" style="group" vertex="1" connectable="0" parent="Sx8AHAFWeWf0jTD64c3A-1">
          <mxGeometry x="90" y="570" width="150" height="40" as="geometry" />
        </mxCell>
        <mxCell id="Sx8AHAFWeWf0jTD64c3A-31" value="" style="rounded=0;whiteSpace=wrap;html=1;" vertex="1" parent="Sx8AHAFWeWf0jTD64c3A-30">
          <mxGeometry x="30" y="-10" width="120" height="40" as="geometry" />
        </mxCell>
        <mxCell id="Sx8AHAFWeWf0jTD64c3A-32" value="8" style="text;html=1;align=center;verticalAlign=middle;resizable=0;points=[];autosize=1;strokeColor=none;fillColor=none;" vertex="1" parent="Sx8AHAFWeWf0jTD64c3A-30">
          <mxGeometry y="5" width="30" height="30" as="geometry" />
        </mxCell>
        <mxCell id="Sx8AHAFWeWf0jTD64c3A-33" value="Tamanha = 10" style="text;html=1;align=center;verticalAlign=middle;resizable=0;points=[];autosize=1;strokeColor=none;fillColor=none;" vertex="1" parent="Sx8AHAFWeWf0jTD64c3A-1">
          <mxGeometry x="30" y="10" width="100" height="30" as="geometry" />
        </mxCell>
        <mxCell id="Sx8AHAFWeWf0jTD64c3A-34" value="FÃ³rmula hash: %10 (mod)" style="text;html=1;align=center;verticalAlign=middle;resizable=0;points=[];autosize=1;strokeColor=none;fillColor=none;" vertex="1" parent="Sx8AHAFWeWf0jTD64c3A-1">
          <mxGeometry x="160" y="10" width="160" height="30" as="geometry" />
        </mxCell>
        <mxCell id="Sx8AHAFWeWf0jTD64c3A-35" value="Remover 83 com o mÃ©todo 2" style="text;html=1;align=center;verticalAlign=middle;resizable=0;points=[];autosize=1;strokeColor=none;fillColor=none;" vertex="1" parent="Sx8AHAFWeWf0jTD64c3A-1">
          <mxGeometry x="280" y="160" width="180" height="30" as="geometry" />
        </mxCell>
      </root>
    </mxGraphModel>
  </diagram>
</mxfile>
